{"glyphs":{"0":{"ha":1481,"x_min":83,"x_max":1397,"o":"m 743 -21 q 244 64 406 -21 q 83 339 83 149 q 245 615 83 529 q 743 701 407 701 q 1237 615 1076 701 q 1397 339 1397 529 q 1238 64 1397 149 q 743 -21 1078 -21 m 743 188 q 977 226 897 188 q 1057 339 1057 264 q 977 453 1057 414 q 743 493 897 493 q 506 453 588 493 q 424 339 424 414 q 505 226 424 264 q 743 188 586 188 z "},"1":{"ha":735,"x_min":35,"x_max":638,"o":"m 638 681 l 638 0 l 304 0 l 304 417 l 35 417 l 35 681 l 638 681 z "},"2":{"ha":1400,"x_min":56,"x_max":1344,"o":"m 556 189 l 1343 215 l 1343 0 l 107 0 l 107 174 l 107 174 l 107 174 l 107 174 l 108 174 q 636 271 467 238 q 899 338 806 304 q 993 408 993 371 q 969 442 993 429 q 883 460 944 454 q 707 467 821 467 q 483 443 558 467 q 403 372 408 419 l 56 372 q 217 615 56 529 q 692 701 379 701 q 1169 649 994 701 q 1344 463 1344 596 q 1267 335 1344 382 q 1064 263 1189 288 q 706 208 939 238 l 556 189 z "},"3":{"ha":1465,"x_min":49,"x_max":1417,"o":"m 967 243 q 1212 222 1115 239 q 1363 160 1308 204 q 1417 38 1417 117 q 1234 -168 1417 -99 q 724 -237 1051 -237 q 223 -149 397 -237 q 49 107 49 -61 l 397 107 q 724 26 403 26 q 913 32 846 26 q 1015 55 981 38 q 1049 107 1049 72 q 1007 157 1049 140 q 886 179 965 174 q 667 185 807 185 l 460 185 l 460 282 l 667 282 q 883 290 806 282 q 994 315 961 297 q 1028 365 1028 333 q 958 426 1028 408 q 731 444 888 444 q 492 420 581 444 q 399 350 404 396 l 53 350 q 142 550 53 469 q 385 669 232 631 q 731 708 539 708 q 1219 647 1050 708 q 1389 463 1389 585 q 1281 306 1389 356 q 967 243 1172 257 z "},"4":{"ha":1519,"x_min":69,"x_max":1478,"o":"m 1478 -49 l 1250 -49 l 1250 -201 l 917 -201 l 917 -49 l 69 -49 l 69 160 l 917 688 l 1250 688 l 1250 160 l 1478 160 l 1478 -49 m 917 160 l 917 392 l 554 160 l 917 160 z "},"5":{"ha":1410,"x_min":76,"x_max":1340,"o":"m 903 328 q 1219 269 1097 328 q 1340 71 1340 211 q 1188 -160 1340 -85 q 731 -236 1036 -236 q 403 -199 553 -236 q 165 -94 254 -162 q 76 65 76 -26 l 382 65 q 484 18 388 36 q 707 0 581 0 q 929 13 851 0 q 1007 75 1007 26 q 928 139 1007 125 q 707 153 849 153 q 519 143 618 153 q 378 124 421 133 l 103 172 l 172 694 l 1226 694 l 1226 431 l 472 431 l 444 226 q 647 299 522 269 q 903 328 771 328 z "},"6":{"ha":1574,"x_min":42,"x_max":1525,"o":"m 961 611 q 1269 572 1143 611 q 1460 461 1396 532 q 1525 297 1525 390 q 1452 128 1525 201 q 1228 14 1379 56 q 847 -28 1076 -28 q 42 281 42 -28 q 128 451 42 374 q 661 889 161 483 l 1131 889 l 656 561 q 961 611 789 611 m 817 210 q 1087 233 996 210 q 1178 304 1178 256 q 1084 376 1178 350 q 817 403 990 403 q 504 376 619 403 q 389 304 389 350 q 817 210 389 210 z "},"7":{"ha":1601,"x_min":83,"x_max":1490,"o":"m 1490 681 l 1490 417 l 789 -208 l 335 -208 l 1046 417 l 83 417 l 83 681 l 1490 681 z "},"8":{"ha":1501,"x_min":49,"x_max":1453,"o":"m 976 476 q 1253 446 1150 469 q 1404 374 1356 422 q 1453 247 1453 326 q 1284 47 1453 121 q 750 -28 1115 -28 q 217 47 385 -28 q 49 247 49 121 q 97 374 49 326 q 249 446 146 422 q 525 476 351 469 q 271 506 365 485 q 133 568 176 528 q 89 672 89 608 q 244 854 89 792 q 750 917 400 917 q 1257 854 1101 917 q 1413 672 1413 792 q 1369 568 1413 608 q 1231 506 1325 528 q 976 476 1136 485 m 443 600 q 507 545 443 564 q 750 526 571 526 q 1002 546 932 526 q 1072 600 1072 565 q 1045 636 1072 622 q 948 657 1018 650 q 750 664 878 664 q 557 657 624 664 q 467 636 490 650 q 443 600 443 622 m 750 235 q 972 242 893 235 q 1081 265 1050 250 q 1113 306 1113 281 q 1081 345 1113 331 q 972 367 1050 360 q 750 375 893 375 q 533 367 608 375 q 431 345 458 360 q 403 306 403 331 q 431 265 403 279 q 533 242 458 250 q 750 235 608 235 z "},"9":{"ha":1608,"x_min":49,"x_max":1560,"o":"m 783 715 q 1371 643 1182 715 q 1560 414 1560 571 q 1535 321 1560 368 q 1453 222 1510 274 q 939 -208 1426 197 l 471 -208 l 981 151 q 613 83 817 83 q 303 123 431 83 q 113 233 176 163 q 49 397 49 304 q 224 633 49 551 q 783 715 400 715 m 396 390 q 491 315 396 339 q 783 292 586 292 q 1099 316 986 292 q 1213 390 1213 340 q 1103 465 1213 443 q 783 486 994 486 q 488 465 579 486 q 396 390 396 444 z "}," ":{"ha":431,"x_min":0,"x_max":0,"o":""},"A":{"ha":1611,"x_min":14,"x_max":1597,"o":"m 1128 135 l 483 135 l 396 0 l 14 0 l 610 889 l 996 889 l 1597 0 l 1215 0 l 1128 135 m 993 343 l 804 635 l 617 343 l 993 343 z "},"Á":{"ha":1611,"x_min":14,"x_max":1597,"o":"m 1128 135 l 483 135 l 396 0 l 14 0 l 610 889 l 996 889 l 1597 0 l 1215 0 l 1128 135 m 993 343 l 804 635 l 617 343 l 993 343 z "},"Ă":{"ha":1611,"x_min":14,"x_max":1597,"o":"m 1128 135 l 483 135 l 396 0 l 14 0 l 610 889 l 996 889 l 1597 0 l 1215 0 l 1128 135 m 993 343 l 804 635 l 617 343 l 993 343 z "},"Â":{"ha":1611,"x_min":14,"x_max":1597,"o":"m 1128 135 l 483 135 l 396 0 l 14 0 l 610 889 l 996 889 l 1597 0 l 1215 0 l 1128 135 m 993 343 l 804 635 l 617 343 l 993 343 z "},"Ä":{"ha":1611,"x_min":14,"x_max":1597,"o":"m 1128 135 l 483 135 l 396 0 l 14 0 l 610 889 l 996 889 l 1597 0 l 1215 0 l 1128 135 m 993 343 l 804 635 l 617 343 l 993 343 m 411 711 l 58 711 l 58 921 l 411 921 l 411 711 m 1588 711 l 1235 711 l 1235 921 l 1588 921 l 1588 711 z "},"À":{"ha":1611,"x_min":14,"x_max":1597,"o":"m 1128 135 l 483 135 l 396 0 l 14 0 l 610 889 l 996 889 l 1597 0 l 1215 0 l 1128 135 m 993 343 l 804 635 l 617 343 l 993 343 z "},"Ā":{"ha":1611,"x_min":14,"x_max":1597,"o":"m 1128 135 l 483 135 l 396 0 l 14 0 l 610 889 l 996 889 l 1597 0 l 1215 0 l 1128 135 m 993 343 l 804 635 l 617 343 l 993 343 z "},"Ą":{"ha":1611,"x_min":14,"x_max":1597,"o":"m 1128 135 l 483 135 l 396 0 l 14 0 l 610 889 l 996 889 l 1597 0 l 1215 0 l 1128 135 m 993 343 l 804 635 l 617 343 l 993 343 z "},"Å":{"ha":1611,"x_min":14,"x_max":1597,"o":"m 1128 135 l 483 135 l 396 0 l 14 0 l 610 889 l 996 889 l 1597 0 l 1215 0 l 1128 135 m 993 343 l 804 635 l 617 343 l 993 343 z "},"Ã":{"ha":1611,"x_min":14,"x_max":1597,"o":"m 1128 135 l 483 135 l 396 0 l 14 0 l 610 889 l 996 889 l 1597 0 l 1215 0 l 1128 135 m 993 343 l 804 635 l 617 343 l 993 343 z "},"Æ":{"ha":2335,"x_min":14,"x_max":2251,"o":"m 2251 264 l 2251 0 l 849 0 l 849 194 l 522 194 l 392 0 l 14 0 l 631 889 l 2249 889 l 2249 625 l 1196 625 l 1196 514 l 2057 514 l 2057 375 l 1196 375 l 1196 264 l 2251 264 m 849 399 l 849 681 l 660 399 l 849 399 z "},"B":{"ha":1583,"x_min":97,"x_max":1542,"o":"m 1197 450 q 1454 405 1367 444 q 1542 265 1542 365 q 1410 65 1542 131 q 1042 0 1279 0 l 97 0 l 97 889 l 972 889 q 1371 837 1244 889 q 1497 667 1497 785 q 1423 515 1497 564 q 1197 450 1349 465 m 444 631 l 444 496 l 990 496 q 1092 513 1061 496 q 1122 564 1122 529 q 1092 615 1122 599 q 990 631 1061 631 l 444 631 m 1049 261 q 1181 329 1181 261 q 1150 379 1181 363 q 1049 396 1119 396 l 444 396 l 444 261 l 1049 261 z "},"C":{"ha":1828,"x_min":83,"x_max":1744,"o":"m 1743 371 q 1537 72 1732 171 q 949 -28 1342 -28 q 476 14 664 -28 q 185 158 288 56 q 83 438 83 260 q 185 721 83 615 q 477 872 288 826 q 949 917 667 917 q 1535 810 1338 917 q 1744 501 1733 704 l 1383 501 q 1254 597 1353 561 q 949 632 1156 632 q 565 585 683 632 q 446 438 446 539 q 565 289 446 335 q 949 243 683 243 q 1253 278 1156 243 q 1382 371 1351 313 l 1743 371 z "},"Ć":{"ha":1828,"x_min":83,"x_max":1744,"o":"m 1743 371 q 1537 72 1732 171 q 949 -28 1342 -28 q 476 14 664 -28 q 185 158 288 56 q 83 438 83 260 q 185 721 83 615 q 477 872 288 826 q 949 917 667 917 q 1535 810 1338 917 q 1744 501 1733 704 l 1383 501 q 1254 597 1353 561 q 949 632 1156 632 q 565 585 683 632 q 446 438 446 539 q 565 289 446 335 q 949 243 683 243 q 1253 278 1156 243 q 1382 371 1351 313 l 1743 371 z "},"Č":{"ha":1828,"x_min":83,"x_max":1744,"o":"m 1743 371 q 1537 72 1732 171 q 949 -28 1342 -28 q 476 14 664 -28 q 185 158 288 56 q 83 438 83 260 q 185 721 83 615 q 477 872 288 826 q 949 917 667 917 q 1535 810 1338 917 q 1744 501 1733 704 l 1383 501 q 1254 597 1353 561 q 949 632 1156 632 q 565 585 683 632 q 446 438 446 539 q 565 289 446 335 q 949 243 683 243 q 1253 278 1156 243 q 1382 371 1351 313 l 1743 371 z "},"Ç":{"ha":1828,"x_min":83,"x_max":1744,"o":"m 1743 371 q 1537 72 1732 171 q 949 -28 1342 -28 q 476 14 664 -28 q 185 158 288 56 q 83 438 83 260 q 185 721 83 615 q 477 872 288 826 q 949 917 667 917 q 1535 810 1338 917 q 1744 501 1733 704 l 1383 501 q 1254 597 1353 561 q 949 632 1156 632 q 565 585 683 632 q 446 438 446 539 q 565 289 446 335 q 949 243 683 243 q 1253 278 1156 243 q 1382 371 1351 313 l 1743 371 z "},"Ċ":{"ha":1828,"x_min":83,"x_max":1744,"o":"m 1743 371 q 1537 72 1732 171 q 949 -28 1342 -28 q 476 14 664 -28 q 185 158 288 56 q 83 438 83 260 q 185 721 83 615 q 477 872 288 826 q 949 917 667 917 q 1535 810 1338 917 q 1744 501 1733 704 l 1383 501 q 1254 597 1353 561 q 949 632 1156 632 q 565 585 683 632 q 446 438 446 539 q 565 289 446 335 q 949 243 683 243 q 1253 278 1156 243 q 1382 371 1351 313 l 1743 371 z "},"D":{"ha":1808,"x_min":97,"x_max":1725,"o":"m 1097 889 q 1725 444 1725 889 q 1664 220 1725 319 q 1463 60 1603 121 q 1097 0 1322 0 l 97 0 l 97 889 l 1097 889 m 1083 278 q 1300 318 1236 278 q 1364 444 1364 358 q 1300 571 1364 531 q 1083 611 1236 611 l 444 611 l 444 278 l 1083 278 z "},"Ð":{"ha":1808,"x_min":-22,"x_max":1725,"o":"m 1097 889 q 1725 444 1725 889 q 1664 220 1725 319 q 1463 60 1603 121 q 1097 0 1322 0 l 97 0 l 97 414 l -22 414 l -22 504 l 97 504 l 97 889 l 1097 889 m 1083 278 q 1300 318 1236 278 q 1364 444 1364 358 q 1300 571 1364 531 q 1083 611 1236 611 l 444 611 l 444 504 l 658 504 l 658 414 l 444 414 l 444 278 l 1083 278 z "},"Ď":{"ha":1808,"x_min":97,"x_max":1725,"o":"m 1097 889 q 1725 444 1725 889 q 1664 220 1725 319 q 1463 60 1603 121 q 1097 0 1322 0 l 97 0 l 97 889 l 1097 889 m 1083 278 q 1300 318 1236 278 q 1364 444 1364 358 q 1300 571 1364 531 q 1083 611 1236 611 l 444 611 l 444 278 l 1083 278 z "},"Đ":{"ha":1808,"x_min":-22,"x_max":1725,"o":"m 1097 889 q 1725 444 1725 889 q 1664 220 1725 319 q 1463 60 1603 121 q 1097 0 1322 0 l 97 0 l 97 414 l -22 414 l -22 504 l 97 504 l 97 889 l 1097 889 m 1083 278 q 1300 318 1236 278 q 1364 444 1364 358 q 1300 571 1364 531 q 1083 611 1236 611 l 444 611 l 444 504 l 658 504 l 658 414 l 444 414 l 444 278 l 1083 278 z "},"E":{"ha":1583,"x_min":97,"x_max":1500,"o":"m 1500 264 l 1500 0 l 97 0 l 97 889 l 1497 889 l 1497 625 l 444 625 l 444 514 l 1306 514 l 1306 375 l 444 375 l 444 264 l 1500 264 z "},"É":{"ha":1583,"x_min":97,"x_max":1500,"o":"m 1500 264 l 1500 0 l 97 0 l 97 889 l 1497 889 l 1497 625 l 444 625 l 444 514 l 1306 514 l 1306 375 l 444 375 l 444 264 l 1500 264 z "},"Ě":{"ha":1583,"x_min":97,"x_max":1500,"o":"m 1500 264 l 1500 0 l 97 0 l 97 889 l 1497 889 l 1497 625 l 444 625 l 444 514 l 1306 514 l 1306 375 l 444 375 l 444 264 l 1500 264 z "},"Ê":{"ha":1583,"x_min":97,"x_max":1500,"o":"m 1500 264 l 1500 0 l 97 0 l 97 889 l 1497 889 l 1497 625 l 444 625 l 444 514 l 1306 514 l 1306 375 l 444 375 l 444 264 l 1500 264 z "},"Ë":{"ha":1583,"x_min":97,"x_max":1500,"o":"m 1500 264 l 1500 0 l 97 0 l 97 889 l 1497 889 l 1497 625 l 444 625 l 444 514 l 1306 514 l 1306 375 l 444 375 l 444 264 l 1500 264 z "},"Ė":{"ha":1583,"x_min":97,"x_max":1500,"o":"m 1500 264 l 1500 0 l 97 0 l 97 889 l 1497 889 l 1497 625 l 444 625 l 444 514 l 1306 514 l 1306 375 l 444 375 l 444 264 l 1500 264 z "},"È":{"ha":1583,"x_min":97,"x_max":1500,"o":"m 1500 264 l 1500 0 l 97 0 l 97 889 l 1497 889 l 1497 625 l 444 625 l 444 514 l 1306 514 l 1306 375 l 444 375 l 444 264 l 1500 264 z "},"Ē":{"ha":1583,"x_min":97,"x_max":1500,"o":"m 1500 264 l 1500 0 l 97 0 l 97 889 l 1497 889 l 1497 625 l 444 625 l 444 514 l 1306 514 l 1306 375 l 444 375 l 444 264 l 1500 264 z "},"Ę":{"ha":1583,"x_min":97,"x_max":1538,"o":"m 1500 264 l 1500 0 l 97 0 l 97 889 l 1497 889 l 1497 625 l 444 625 l 444 514 l 1306 514 l 1306 375 l 444 375 l 444 264 l 1500 264 z "},"F":{"ha":1567,"x_min":97,"x_max":1497,"o":"m 444 625 l 444 507 l 1306 507 l 1306 271 l 444 271 l 444 0 l 97 0 l 97 889 l 1497 889 l 1497 625 l 444 625 z "},"G":{"ha":1875,"x_min":83,"x_max":1778,"o":"m 1492 0 q 1543 240 1492 86 q 1308 44 1472 117 q 907 -28 1144 -28 q 297 76 511 -28 q 83 438 83 179 q 306 808 83 699 q 949 917 529 917 q 1531 812 1328 917 q 1744 515 1733 707 l 1383 515 q 949 632 1308 632 q 565 585 683 632 q 446 438 446 539 q 499 326 446 368 q 669 263 553 283 q 976 243 785 243 q 1429 303 1233 243 l 1176 300 l 1176 446 l 1764 446 l 1778 0 l 1492 0 z "},"Ğ":{"ha":1875,"x_min":83,"x_max":1778,"o":"m 1492 0 q 1543 240 1492 86 q 1308 44 1472 117 q 907 -28 1144 -28 q 297 76 511 -28 q 83 438 83 179 q 306 808 83 699 q 949 917 529 917 q 1531 812 1328 917 q 1744 515 1733 707 l 1383 515 q 949 632 1308 632 q 565 585 683 632 q 446 438 446 539 q 499 326 446 368 q 669 263 553 283 q 976 243 785 243 q 1429 303 1233 243 l 1176 300 l 1176 446 l 1764 446 l 1778 0 l 1492 0 z "},"Ģ":{"ha":1875,"x_min":83,"x_max":1778,"o":"m 1492 0 q 1543 240 1492 86 q 1308 44 1472 117 q 907 -28 1144 -28 q 297 76 511 -28 q 83 438 83 179 q 306 808 83 699 q 949 917 529 917 q 1531 812 1328 917 q 1744 515 1733 707 l 1383 515 q 949 632 1308 632 q 565 585 683 632 q 446 438 446 539 q 499 326 446 368 q 669 263 553 283 q 976 243 785 243 q 1429 303 1233 243 l 1176 300 l 1176 446 l 1764 446 l 1778 0 l 1492 0 z "},"Ġ":{"ha":1875,"x_min":83,"x_max":1778,"o":"m 1492 0 q 1543 240 1492 86 q 1308 44 1472 117 q 907 -28 1144 -28 q 297 76 511 -28 q 83 438 83 179 q 306 808 83 699 q 949 917 529 917 q 1531 812 1328 917 q 1744 515 1733 707 l 1383 515 q 949 632 1308 632 q 565 585 683 632 q 446 438 446 539 q 499 326 446 368 q 669 263 553 283 q 976 243 785 243 q 1429 303 1233 243 l 1176 300 l 1176 446 l 1764 446 l 1778 0 l 1492 0 z "},"H":{"ha":1778,"x_min":97,"x_max":1681,"o":"m 1681 889 l 1681 0 l 1333 0 l 1333 318 l 444 318 l 444 0 l 97 0 l 97 889 l 444 889 l 444 582 l 1333 582 l 1333 889 l 1681 889 z "},"Ħ":{"ha":1778,"x_min":42,"x_max":1736,"o":"m 1736 639 l 1682 639 l 1682 0 l 1335 0 l 1335 318 l 446 318 l 446 0 l 99 0 l 99 639 l 42 639 l 42 743 l 99 743 l 99 889 l 446 889 l 446 743 l 1335 743 l 1335 889 l 1682 889 l 1682 743 l 1736 743 l 1736 639 m 1335 639 l 446 639 l 446 582 l 1335 582 l 1335 639 z "},"I":{"ha":583,"x_min":118,"x_max":465,"o":"m 465 889 l 465 0 l 118 0 l 118 889 l 465 889 z "},"Ĳ":{"ha":1469,"x_min":118,"x_max":1372,"o":"m 1372 889 l 1372 415 q 1306 206 1372 304 q 1098 47 1239 108 q 747 -14 957 -14 q 438 27 579 -14 q 208 163 297 68 q 118 408 119 257 l 451 408 q 540 285 469 322 q 747 247 610 247 q 967 301 908 247 q 1025 457 1025 356 l 1025 889 l 1372 889 m 453 478 l 119 478 l 119 889 l 453 889 l 453 478 z "},"Í":{"ha":583,"x_min":115,"x_max":468,"o":"m 465 889 l 465 0 l 118 0 l 118 889 l 465 889 z "},"Î":{"ha":583,"x_min":115,"x_max":468,"o":"m 465 889 l 465 0 l 118 0 l 118 889 l 465 889 z "},"Ï":{"ha":583,"x_min":-96,"x_max":679,"o":"m 465 889 l 465 0 l 118 0 l 118 889 l 465 889 z "},"İ":{"ha":583,"x_min":115,"x_max":468,"o":"m 465 889 l 465 0 l 118 0 l 118 889 l 465 889 z "},"Ì":{"ha":583,"x_min":115,"x_max":468,"o":"m 465 889 l 465 0 l 118 0 l 118 889 l 465 889 z "},"Ī":{"ha":583,"x_min":115,"x_max":468,"o":"m 465 889 l 465 0 l 118 0 l 118 889 l 465 889 z "},"Į":{"ha":583,"x_min":115,"x_max":468,"o":"m 465 889 l 465 0 l 118 0 l 118 889 l 465 889 z "},"J":{"ha":1394,"x_min":43,"x_max":1297,"o":"m 1297 889 l 1297 415 q 1231 206 1297 304 q 1023 47 1164 108 q 672 -14 882 -14 q 363 27 504 -14 q 133 163 222 68 q 43 408 44 257 l 376 408 q 465 285 396 322 q 672 247 535 247 q 892 301 833 247 q 950 457 950 356 l 950 889 l 1297 889 z "},"K":{"ha":1688,"x_min":97,"x_max":1639,"o":"m 1108 0 l 444 469 l 444 0 l 97 0 l 97 889 l 444 889 l 444 475 l 1014 889 l 1564 889 l 925 475 l 1639 0 l 1108 0 z "},"Ķ":{"ha":1688,"x_min":97,"x_max":1639,"o":"m 1108 0 l 444 469 l 444 0 l 97 0 l 97 889 l 444 889 l 444 475 l 1014 889 l 1564 889 l 925 475 l 1639 0 l 1108 0 z "},"L":{"ha":1310,"x_min":97,"x_max":1254,"o":"m 1254 264 l 1254 0 l 235 0 l 235 0 l 97 0 l 97 889 l 444 889 l 444 264 l 1254 264 z "},"Ĺ":{"ha":1310,"x_min":97,"x_max":1254,"o":"m 1254 264 l 1254 0 l 235 0 l 235 0 l 97 0 l 97 889 l 444 889 l 444 264 l 1254 264 z "},"Ľ":{"ha":1310,"x_min":97,"x_max":1254,"o":"m 1254 264 l 1254 0 l 235 0 l 235 0 l 97 0 l 97 889 l 444 889 l 444 264 l 1254 264 z "},"Ļ":{"ha":1310,"x_min":97,"x_max":1254,"o":"m 1254 264 l 1254 0 l 235 0 l 235 0 l 97 0 l 97 889 l 444 889 l 444 264 l 1254 264 z "},"Ŀ":{"ha":1310,"x_min":97,"x_max":1254,"o":"m 1254 264 l 1254 0 l 235 0 l 235 0 l 97 0 l 97 889 l 444 889 l 444 264 l 1254 264 z "},"Ł":{"ha":1310,"x_min":-32,"x_max":1254,"o":"m 1254 264 l 1254 0 l 235 0 l 235 0 l 97 0 l 97 296 l 17 242 l -32 315 l 97 403 l 97 889 l 444 889 l 444 642 l 535 704 l 586 631 l 444 533 l 444 264 l 1254 264 z "},"M":{"ha":2194,"x_min":97,"x_max":2097,"o":"m 2097 889 l 2097 0 l 1750 0 l 1750 456 l 1306 0 l 889 0 l 444 454 l 444 0 l 97 0 l 97 889 l 444 889 l 1096 214 l 1750 889 l 2097 889 z "},"N":{"ha":1806,"x_min":97,"x_max":1708,"o":"m 1708 889 l 1708 0 l 1361 0 l 444 531 l 444 0 l 97 0 l 97 889 l 444 889 l 1361 349 l 1361 889 l 1708 889 z "},"Ń":{"ha":1806,"x_min":97,"x_max":1708,"o":"m 1708 889 l 1708 0 l 1361 0 l 444 531 l 444 0 l 97 0 l 97 889 l 444 889 l 1361 349 l 1361 889 l 1708 889 z "},"Ň":{"ha":1806,"x_min":97,"x_max":1708,"o":"m 1708 889 l 1708 0 l 1361 0 l 444 531 l 444 0 l 97 0 l 97 889 l 444 889 l 1361 349 l 1361 889 l 1708 889 z "},"Ņ":{"ha":1806,"x_min":97,"x_max":1708,"o":"m 1708 889 l 1708 0 l 1361 0 l 444 531 l 444 0 l 97 0 l 97 889 l 444 889 l 1361 349 l 1361 889 l 1708 889 z "},"Ŋ":{"ha":1806,"x_min":97,"x_max":1708,"o":"m 1708 889 l 1708 -83 q 1606 -252 1708 -210 q 1336 -294 1504 -294 l 1242 -293 q 1167 -292 1215 -292 l 1167 -56 q 1361 0 1361 -56 l 444 531 l 444 0 l 97 0 l 97 889 l 444 889 l 1361 349 l 1361 889 l 1708 889 z "},"Ñ":{"ha":1806,"x_min":97,"x_max":1708,"o":"m 1708 889 l 1708 0 l 1361 0 l 444 531 l 444 0 l 97 0 l 97 889 l 444 889 l 1361 349 l 1361 889 l 1708 889 z "},"O":{"ha":1847,"x_min":83,"x_max":1764,"o":"m 924 -28 q 438 25 624 -28 q 168 182 253 78 q 83 444 83 286 q 168 707 83 603 q 438 864 253 811 q 924 917 624 917 q 1409 864 1224 917 q 1679 707 1594 811 q 1764 444 1764 603 q 1679 182 1764 286 q 1409 25 1594 78 q 924 -28 1224 -28 m 924 250 q 1272 293 1154 250 q 1389 444 1389 336 q 1272 590 1389 549 q 924 632 1154 632 q 568 590 692 632 q 444 444 444 547 q 567 293 444 336 q 924 250 690 250 z "},"Ó":{"ha":1847,"x_min":83,"x_max":1764,"o":"m 924 -28 q 438 25 624 -28 q 168 182 253 78 q 83 444 83 286 q 168 707 83 603 q 438 864 253 811 q 924 917 624 917 q 1409 864 1224 917 q 1679 707 1594 811 q 1764 444 1764 603 q 1679 182 1764 286 q 1409 25 1594 78 q 924 -28 1224 -28 m 924 250 q 1272 293 1154 250 q 1389 444 1389 336 q 1272 590 1389 549 q 924 632 1154 632 q 568 590 692 632 q 444 444 444 547 q 567 293 444 336 q 924 250 690 250 z "},"Ô":{"ha":1847,"x_min":83,"x_max":1764,"o":"m 924 -28 q 438 25 624 -28 q 168 182 253 78 q 83 444 83 286 q 168 707 83 603 q 438 864 253 811 q 924 917 624 917 q 1409 864 1224 917 q 1679 707 1594 811 q 1764 444 1764 603 q 1679 182 1764 286 q 1409 25 1594 78 q 924 -28 1224 -28 m 924 250 q 1272 293 1154 250 q 1389 444 1389 336 q 1272 590 1389 549 q 924 632 1154 632 q 568 590 692 632 q 444 444 444 547 q 567 293 444 336 q 924 250 690 250 z "},"Ö":{"ha":1847,"x_min":83,"x_max":1764,"o":"m 924 -28 q 438 25 624 -28 q 168 182 253 78 q 83 444 83 286 q 168 707 83 603 q 438 864 253 811 q 924 917 624 917 q 1409 864 1224 917 q 1679 707 1594 811 q 1764 444 1764 603 q 1679 182 1764 286 q 1409 25 1594 78 q 924 -28 1224 -28 m 924 250 q 1272 293 1154 250 q 1389 444 1389 336 q 1272 590 1389 549 q 924 632 1154 632 q 568 590 692 632 q 444 444 444 547 q 567 293 444 336 q 924 250 690 250 m 915 975 l 563 975 l 563 1185 l 915 1185 l 915 975 m 1339 975 l 986 975 l 986 1185 l 1339 1185 l 1339 975 z "},"Ò":{"ha":1847,"x_min":83,"x_max":1764,"o":"m 924 -28 q 438 25 624 -28 q 168 182 253 78 q 83 444 83 286 q 168 707 83 603 q 438 864 253 811 q 924 917 624 917 q 1409 864 1224 917 q 1679 707 1594 811 q 1764 444 1764 603 q 1679 182 1764 286 q 1409 25 1594 78 q 924 -28 1224 -28 m 924 250 q 1272 293 1154 250 q 1389 444 1389 336 q 1272 590 1389 549 q 924 632 1154 632 q 568 590 692 632 q 444 444 444 547 q 567 293 444 336 q 924 250 690 250 z "},"Ő":{"ha":1847,"x_min":83,"x_max":1764,"o":"m 924 -28 q 438 25 624 -28 q 168 182 253 78 q 83 444 83 286 q 168 707 83 603 q 438 864 253 811 q 924 917 624 917 q 1409 864 1224 917 q 1679 707 1594 811 q 1764 444 1764 603 q 1679 182 1764 286 q 1409 25 1594 78 q 924 -28 1224 -28 m 924 250 q 1272 293 1154 250 q 1389 444 1389 336 q 1272 590 1389 549 q 924 632 1154 632 q 568 590 692 632 q 444 444 444 547 q 567 293 444 336 q 924 250 690 250 z "},"Ō":{"ha":1847,"x_min":83,"x_max":1764,"o":"m 924 -28 q 438 25 624 -28 q 168 182 253 78 q 83 444 83 286 q 168 707 83 603 q 438 864 253 811 q 924 917 624 917 q 1409 864 1224 917 q 1679 707 1594 811 q 1764 444 1764 603 q 1679 182 1764 286 q 1409 25 1594 78 q 924 -28 1224 -28 m 924 250 q 1272 293 1154 250 q 1389 444 1389 336 q 1272 590 1389 549 q 924 632 1154 632 q 568 590 692 632 q 444 444 444 547 q 567 293 444 336 q 924 250 690 250 z "},"Ø":{"ha":1847,"x_min":83,"x_max":1764,"o":"m 1224 900 q 1635 751 1506 864 q 1764 444 1764 639 q 1679 182 1764 286 q 1409 25 1594 78 q 924 -28 1224 -28 q 714 -21 821 -28 l 658 -122 l 586 -78 l 622 -11 q 212 138 340 25 q 83 444 83 250 q 168 707 83 603 q 438 864 253 811 q 924 917 624 917 q 1131 910 1024 917 l 1186 1011 l 1261 969 l 1224 900 m 444 444 q 528 312 444 356 q 769 256 611 268 l 978 632 l 924 632 q 568 590 692 632 q 444 444 444 547 m 924 250 q 1272 293 1154 250 q 1389 444 1389 336 q 1308 572 1389 529 q 1072 628 1228 615 l 864 250 l 924 250 z "},"Õ":{"ha":1847,"x_min":83,"x_max":1764,"o":"m 924 -28 q 438 25 624 -28 q 168 182 253 78 q 83 444 83 286 q 168 707 83 603 q 438 864 253 811 q 924 917 624 917 q 1409 864 1224 917 q 1679 707 1594 811 q 1764 444 1764 603 q 1679 182 1764 286 q 1409 25 1594 78 q 924 -28 1224 -28 m 924 250 q 1272 293 1154 250 q 1389 444 1389 336 q 1272 590 1389 549 q 924 632 1154 632 q 568 590 692 632 q 444 444 444 547 q 567 293 444 336 q 924 250 690 250 z "},"Œ":{"ha":2725,"x_min":83,"x_max":2642,"o":"m 2642 0 l 1299 0 q 924 -28 1136 -28 q 438 25 624 -28 q 168 182 253 78 q 83 444 83 286 q 168 707 83 603 q 438 864 253 811 q 924 917 624 917 q 1299 889 1136 917 l 2639 889 l 2639 625 l 1729 625 q 1757 535 1749 582 l 2447 535 l 2447 354 l 1757 354 q 1729 264 1749 307 l 2642 264 l 2642 0 m 444 444 q 567 293 444 336 q 924 250 690 250 q 1272 293 1154 250 q 1389 444 1389 336 q 1272 590 1389 549 q 924 632 1154 632 q 568 590 692 632 q 444 444 444 547 z "},"P":{"ha":1635,"x_min":94,"x_max":1558,"o":"m 1058 889 q 1426 814 1294 889 q 1558 542 1558 739 q 1494 339 1558 407 q 1326 250 1431 271 q 1058 229 1222 229 l 442 229 l 442 0 l 94 0 l 94 889 l 1058 889 m 1113 472 q 1185 487 1160 472 q 1211 542 1211 501 q 1185 597 1211 582 q 1113 611 1160 611 l 442 611 l 442 472 l 1113 472 z "},"Þ":{"ha":1524,"x_min":94,"x_max":1447,"o":"m 947 764 q 1214 742 1108 764 q 1383 649 1319 719 q 1447 444 1447 579 q 1383 240 1447 310 q 1214 147 1319 169 q 947 125 1108 125 l 442 125 l 442 0 l 94 0 l 94 889 l 442 889 l 442 764 l 947 764 m 1001 375 q 1074 390 1049 375 q 1100 444 1100 404 q 1074 499 1100 485 q 1001 514 1049 514 l 442 514 l 442 375 l 1001 375 z "},"Q":{"ha":1847,"x_min":83,"x_max":1764,"o":"m 1764 444 q 1604 113 1764 229 q 1090 -24 1444 -3 l 1090 -278 l 757 -278 l 757 -24 q 243 113 403 -3 q 83 444 83 229 q 168 707 83 603 q 438 864 253 811 q 924 917 624 917 q 1409 864 1224 917 q 1679 707 1594 811 q 1764 444 1764 603 m 924 250 q 1272 293 1154 250 q 1389 444 1389 336 q 1272 590 1389 549 q 924 632 1154 632 q 568 590 692 632 q 444 444 444 547 q 567 293 444 336 q 924 250 690 250 z "},"R":{"ha":1711,"x_min":97,"x_max":1617,"o":"m 1390 333 q 1542 290 1500 322 q 1585 190 1585 258 l 1585 0 l 1238 0 l 1238 149 q 1214 213 1238 192 q 1133 242 1190 233 q 960 250 1075 250 l 444 250 l 444 0 l 97 0 l 97 889 l 1171 889 q 1497 817 1376 889 q 1617 583 1617 746 q 1557 410 1617 468 q 1390 333 1497 353 m 1171 482 q 1243 497 1217 482 q 1269 549 1269 511 q 1171 611 1269 611 l 444 611 l 444 482 l 1171 482 z "},"Ŕ":{"ha":1711,"x_min":97,"x_max":1617,"o":"m 1390 333 q 1542 290 1500 322 q 1585 190 1585 258 l 1585 0 l 1238 0 l 1238 149 q 1214 213 1238 192 q 1133 242 1190 233 q 960 250 1075 250 l 444 250 l 444 0 l 97 0 l 97 889 l 1171 889 q 1497 817 1376 889 q 1617 583 1617 746 q 1557 410 1617 468 q 1390 333 1497 353 m 1171 482 q 1243 497 1217 482 q 1269 549 1269 511 q 1171 611 1269 611 l 444 611 l 444 482 l 1171 482 z "},"Ř":{"ha":1711,"x_min":97,"x_max":1617,"o":"m 1390 333 q 1542 290 1500 322 q 1585 190 1585 258 l 1585 0 l 1238 0 l 1238 149 q 1214 213 1238 192 q 1133 242 1190 233 q 960 250 1075 250 l 444 250 l 444 0 l 97 0 l 97 889 l 1171 889 q 1497 817 1376 889 q 1617 583 1617 746 q 1557 410 1617 468 q 1390 333 1497 353 m 1171 482 q 1243 497 1217 482 q 1269 549 1269 511 q 1171 611 1269 611 l 444 611 l 444 482 l 1171 482 z "},"Ŗ":{"ha":1711,"x_min":97,"x_max":1617,"o":"m 1390 333 q 1542 290 1500 322 q 1585 190 1585 258 l 1585 0 l 1238 0 l 1238 149 q 1214 213 1238 192 q 1133 242 1190 233 q 960 250 1075 250 l 444 250 l 444 0 l 97 0 l 97 889 l 1171 889 q 1497 817 1376 889 q 1617 583 1617 746 q 1557 410 1617 468 q 1390 333 1497 353 m 1171 482 q 1243 497 1217 482 q 1269 549 1269 511 q 1171 611 1269 611 l 444 611 l 444 482 l 1171 482 z "},"S":{"ha":1474,"x_min":56,"x_max":1418,"o":"m 435 326 q 547 263 449 286 q 804 240 644 240 q 969 247 910 240 q 1053 267 1028 253 q 1079 308 1079 282 q 1038 349 1079 335 q 898 369 997 364 q 607 375 799 375 q 197 430 324 375 q 69 607 69 485 q 233 841 69 764 q 735 918 397 918 q 1228 826 1058 918 q 1399 560 1399 733 l 1039 560 q 949 628 1032 604 q 721 651 867 651 q 494 635 565 651 q 422 581 422 618 q 459 539 422 553 q 590 519 496 525 q 874 514 683 514 q 1193 492 1075 514 q 1365 421 1311 469 q 1418 289 1418 372 q 1351 106 1418 175 q 1140 5 1283 38 q 763 -28 997 -28 q 385 15 544 -28 q 140 137 225 57 q 56 326 56 217 l 435 326 z "},"Ś":{"ha":1474,"x_min":56,"x_max":1418,"o":"m 435 326 q 547 263 449 286 q 804 240 644 240 q 969 247 910 240 q 1053 267 1028 253 q 1079 308 1079 282 q 1038 349 1079 335 q 898 369 997 364 q 607 375 799 375 q 197 430 324 375 q 69 607 69 485 q 233 841 69 764 q 735 918 397 918 q 1228 826 1058 918 q 1399 560 1399 733 l 1039 560 q 949 628 1032 604 q 721 651 867 651 q 494 635 565 651 q 422 581 422 618 q 459 539 422 553 q 590 519 496 525 q 874 514 683 514 q 1193 492 1075 514 q 1365 421 1311 469 q 1418 289 1418 372 q 1351 106 1418 175 q 1140 5 1283 38 q 763 -28 997 -28 q 385 15 544 -28 q 140 137 225 57 q 56 326 56 217 l 435 326 z "},"Š":{"ha":1474,"x_min":56,"x_max":1418,"o":"m 435 326 q 547 263 449 286 q 804 240 644 240 q 969 247 910 240 q 1053 267 1028 253 q 1079 308 1079 282 q 1038 349 1079 335 q 898 369 997 364 q 607 375 799 375 q 197 430 324 375 q 69 607 69 485 q 233 841 69 764 q 735 918 397 918 q 1228 826 1058 918 q 1399 560 1399 733 l 1039 560 q 949 628 1032 604 q 721 651 867 651 q 494 635 565 651 q 422 581 422 618 q 459 539 422 553 q 590 519 496 525 q 874 514 683 514 q 1193 492 1075 514 q 1365 421 1311 469 q 1418 289 1418 372 q 1351 106 1418 175 q 1140 5 1283 38 q 763 -28 997 -28 q 385 15 544 -28 q 140 137 225 57 q 56 326 56 217 l 435 326 z "},"Ş":{"ha":1474,"x_min":56,"x_max":1418,"o":"m 435 326 q 547 263 449 286 q 804 240 644 240 q 969 247 910 240 q 1053 267 1028 253 q 1079 308 1079 282 q 1038 349 1079 335 q 898 369 997 364 q 607 375 799 375 q 197 430 324 375 q 69 607 69 485 q 233 841 69 764 q 735 918 397 918 q 1228 826 1058 918 q 1399 560 1399 733 l 1039 560 q 949 628 1032 604 q 721 651 867 651 q 494 635 565 651 q 422 581 422 618 q 459 539 422 553 q 590 519 496 525 q 874 514 683 514 q 1193 492 1075 514 q 1365 421 1311 469 q 1418 289 1418 372 q 1351 106 1418 175 q 1140 5 1283 38 q 763 -28 997 -28 q 385 15 544 -28 q 140 137 225 57 q 56 326 56 217 l 435 326 z "},"Ș":{"ha":1474,"x_min":56,"x_max":1418,"o":"m 435 326 q 547 263 449 286 q 804 240 644 240 q 969 247 910 240 q 1053 267 1028 253 q 1079 308 1079 282 q 1038 349 1079 335 q 898 369 997 364 q 607 375 799 375 q 197 430 324 375 q 69 607 69 485 q 233 841 69 764 q 735 918 397 918 q 1228 826 1058 918 q 1399 560 1399 733 l 1039 560 q 949 628 1032 604 q 721 651 867 651 q 494 635 565 651 q 422 581 422 618 q 459 539 422 553 q 590 519 496 525 q 874 514 683 514 q 1193 492 1075 514 q 1365 421 1311 469 q 1418 289 1418 372 q 1351 106 1418 175 q 1140 5 1283 38 q 763 -28 997 -28 q 385 15 544 -28 q 140 137 225 57 q 56 326 56 217 l 435 326 z "},"T":{"ha":1528,"x_min":42,"x_max":1486,"o":"m 1486 618 l 938 618 l 938 0 l 590 0 l 590 618 l 42 618 l 42 889 l 1486 889 l 1486 618 z "},"Ŧ":{"ha":1528,"x_min":42,"x_max":1486,"o":"m 1486 618 l 938 618 l 938 0 l 590 0 l 590 618 l 42 618 l 42 889 l 1486 889 l 1486 618 z "},"Ť":{"ha":1528,"x_min":42,"x_max":1486,"o":"m 1486 618 l 938 618 l 938 0 l 590 0 l 590 618 l 42 618 l 42 889 l 1486 889 l 1486 618 z "},"Ţ":{"ha":1528,"x_min":42,"x_max":1486,"o":"m 1486 618 l 938 618 l 938 0 l 590 0 l 590 618 l 42 618 l 42 889 l 1486 889 l 1486 618 z "},"Ț":{"ha":1528,"x_min":42,"x_max":1486,"o":"m 1486 618 l 938 618 l 938 0 l 590 0 l 590 618 l 42 618 l 42 889 l 1486 889 l 1486 618 z "},"U":{"ha":1790,"x_min":97,"x_max":1693,"o":"m 1693 889 l 1693 444 q 1473 74 1693 175 q 896 -28 1253 -28 q 484 10 658 -28 q 203 153 310 49 q 97 444 97 258 l 97 889 l 444 889 l 444 507 q 497 346 444 401 q 644 272 549 290 q 896 253 739 253 q 1144 272 1049 253 q 1293 346 1240 290 q 1346 507 1346 401 l 1346 889 l 1693 889 z "},"Ú":{"ha":1790,"x_min":97,"x_max":1693,"o":"m 1693 889 l 1693 444 q 1473 74 1693 175 q 896 -28 1253 -28 q 484 10 658 -28 q 203 153 310 49 q 97 444 97 258 l 97 889 l 444 889 l 444 507 q 497 346 444 401 q 644 272 549 290 q 896 253 739 253 q 1144 272 1049 253 q 1293 346 1240 290 q 1346 507 1346 401 l 1346 889 l 1693 889 z "},"Û":{"ha":1790,"x_min":97,"x_max":1693,"o":"m 1693 889 l 1693 444 q 1473 74 1693 175 q 896 -28 1253 -28 q 484 10 658 -28 q 203 153 310 49 q 97 444 97 258 l 97 889 l 444 889 l 444 507 q 497 346 444 401 q 644 272 549 290 q 896 253 739 253 q 1144 272 1049 253 q 1293 346 1240 290 q 1346 507 1346 401 l 1346 889 l 1693 889 z "},"Ü":{"ha":1790,"x_min":97,"x_max":1693,"o":"m 1693 889 l 1693 444 q 1473 74 1693 175 q 896 -28 1253 -28 q 484 10 658 -28 q 203 153 310 49 q 97 444 97 258 l 97 889 l 444 889 l 444 507 q 497 346 444 401 q 644 272 549 290 q 896 253 739 253 q 1144 272 1049 253 q 1293 346 1240 290 q 1346 507 1346 401 l 1346 889 l 1693 889 z "},"Ù":{"ha":1790,"x_min":97,"x_max":1693,"o":"m 1693 889 l 1693 444 q 1473 74 1693 175 q 896 -28 1253 -28 q 484 10 658 -28 q 203 153 310 49 q 97 444 97 258 l 97 889 l 444 889 l 444 507 q 497 346 444 401 q 644 272 549 290 q 896 253 739 253 q 1144 272 1049 253 q 1293 346 1240 290 q 1346 507 1346 401 l 1346 889 l 1693 889 z "},"Ű":{"ha":1790,"x_min":97,"x_max":1693,"o":"m 1693 889 l 1693 444 q 1473 74 1693 175 q 896 -28 1253 -28 q 484 10 658 -28 q 203 153 310 49 q 97 444 97 258 l 97 889 l 444 889 l 444 507 q 497 346 444 401 q 644 272 549 290 q 896 253 739 253 q 1144 272 1049 253 q 1293 346 1240 290 q 1346 507 1346 401 l 1346 889 l 1693 889 z "},"Ū":{"ha":1790,"x_min":97,"x_max":1693,"o":"m 1693 889 l 1693 444 q 1473 74 1693 175 q 896 -28 1253 -28 q 484 10 658 -28 q 203 153 310 49 q 97 444 97 258 l 97 889 l 444 889 l 444 507 q 497 346 444 401 q 644 272 549 290 q 896 253 739 253 q 1144 272 1049 253 q 1293 346 1240 290 q 1346 507 1346 401 l 1346 889 l 1693 889 z "},"Ų":{"ha":1790,"x_min":97,"x_max":1704,"o":"m 1693 889 l 1693 444 q 1473 74 1693 175 q 896 -28 1253 -28 q 484 10 658 -28 q 203 153 310 49 q 97 444 97 258 l 97 889 l 444 889 l 444 507 q 497 346 444 401 q 644 272 549 290 q 896 253 739 253 q 1144 272 1049 253 q 1293 346 1240 290 q 1346 507 1346 401 l 1346 889 l 1693 889 z "},"Ů":{"ha":1790,"x_min":97,"x_max":1693,"o":"m 1693 889 l 1693 444 q 1473 74 1693 175 q 896 -28 1253 -28 q 484 10 658 -28 q 203 153 310 49 q 97 444 97 258 l 97 889 l 444 889 l 444 507 q 497 346 444 401 q 644 272 549 290 q 896 253 739 253 q 1144 272 1049 253 q 1293 346 1240 290 q 1346 507 1346 401 l 1346 889 l 1693 889 z "},"V":{"ha":1611,"x_min":28,"x_max":1583,"o":"m 1583 889 l 1050 0 l 567 0 l 28 889 l 419 889 l 808 167 l 1197 889 l 1583 889 z "},"W":{"ha":2614,"x_min":28,"x_max":2586,"o":"m 2586 889 l 2094 0 l 1625 0 l 1310 615 l 994 0 l 525 0 l 28 889 l 419 889 l 771 196 l 1100 889 l 1519 889 l 1849 196 l 2200 889 l 2586 889 z "},"Ẃ":{"ha":2614,"x_min":28,"x_max":2586,"o":"m 2586 889 l 2094 0 l 1625 0 l 1310 615 l 994 0 l 525 0 l 28 889 l 419 889 l 771 196 l 1100 889 l 1519 889 l 1849 196 l 2200 889 l 2586 889 z "},"Ŵ":{"ha":2614,"x_min":28,"x_max":2586,"o":"m 2586 889 l 2094 0 l 1625 0 l 1310 615 l 994 0 l 525 0 l 28 889 l 419 889 l 771 196 l 1100 889 l 1519 889 l 1849 196 l 2200 889 l 2586 889 z "},"Ẅ":{"ha":2614,"x_min":28,"x_max":2586,"o":"m 2586 889 l 2094 0 l 1625 0 l 1310 615 l 994 0 l 525 0 l 28 889 l 419 889 l 771 196 l 1100 889 l 1519 889 l 1849 196 l 2200 889 l 2586 889 m 953 814 l 600 814 l 600 1024 l 953 1024 l 953 814 m 2086 815 l 1733 815 l 1733 1025 l 2086 1025 l 2086 815 z "},"Ẁ":{"ha":2614,"x_min":28,"x_max":2586,"o":"m 2586 889 l 2094 0 l 1625 0 l 1310 615 l 994 0 l 525 0 l 28 889 l 419 889 l 771 196 l 1100 889 l 1519 889 l 1849 196 l 2200 889 l 2586 889 z "},"X":{"ha":1583,"x_min":42,"x_max":1542,"o":"m 1097 0 l 790 265 l 486 0 l 42 0 l 576 449 l 56 889 l 500 889 l 792 632 l 1083 889 l 1528 889 l 1006 449 l 1542 0 l 1097 0 z "},"Y":{"ha":1486,"x_min":7,"x_max":1479,"o":"m 1479 889 l 917 226 l 917 0 l 569 0 l 569 226 l 7 889 l 417 889 l 744 476 l 1069 889 l 1479 889 z "},"Ý":{"ha":1486,"x_min":7,"x_max":1479,"o":"m 1479 889 l 917 226 l 917 0 l 569 0 l 569 226 l 7 889 l 417 889 l 744 476 l 1069 889 l 1479 889 z "},"Ŷ":{"ha":1486,"x_min":7,"x_max":1479,"o":"m 1479 889 l 917 226 l 917 0 l 569 0 l 569 226 l 7 889 l 417 889 l 744 476 l 1069 889 l 1479 889 z "},"Ÿ":{"ha":1486,"x_min":7,"x_max":1479,"o":"m 1479 889 l 917 226 l 917 0 l 569 0 l 569 226 l 7 889 l 417 889 l 744 476 l 1069 889 l 1479 889 z "},"Ỳ":{"ha":1486,"x_min":7,"x_max":1479,"o":"m 1479 889 l 917 226 l 917 0 l 569 0 l 569 226 l 7 889 l 417 889 l 744 476 l 1069 889 l 1479 889 z "},"Z":{"ha":1694,"x_min":111,"x_max":1583,"o":"m 1583 625 l 711 264 l 1583 264 l 1583 0 l 111 0 l 111 264 l 988 625 l 111 625 l 111 889 l 1583 889 l 1583 625 z "},"Ź":{"ha":1694,"x_min":111,"x_max":1583,"o":"m 1583 625 l 711 264 l 1583 264 l 1583 0 l 111 0 l 111 264 l 988 625 l 111 625 l 111 889 l 1583 889 l 1583 625 z "},"Ž":{"ha":1694,"x_min":111,"x_max":1583,"o":"m 1583 625 l 711 264 l 1583 264 l 1583 0 l 111 0 l 111 264 l 988 625 l 111 625 l 111 889 l 1583 889 l 1583 625 z "},"Ż":{"ha":1694,"x_min":111,"x_max":1583,"o":"m 1583 625 l 711 264 l 1583 264 l 1583 0 l 111 0 l 111 264 l 988 625 l 111 625 l 111 889 l 1583 889 l 1583 625 z "},"a":{"ha":1476,"x_min":49,"x_max":1414,"o":"m 1414 681 l 1414 0 l 1100 0 q 1081 214 1085 88 q 896 43 1031 106 q 567 -19 761 -19 q 299 24 417 -19 q 115 148 181 67 q 49 340 49 229 q 115 538 49 457 q 297 660 181 619 q 567 701 414 701 q 895 639 761 701 q 1081 468 1029 576 l 1081 681 l 1414 681 m 692 192 q 1081 340 1081 192 q 976 456 1081 422 q 692 489 871 489 q 471 451 547 489 q 394 340 394 414 q 472 229 394 267 q 692 192 549 192 z "},"á":{"ha":1476,"x_min":49,"x_max":1414,"o":"m 1414 681 l 1414 0 l 1100 0 q 1081 214 1085 88 q 896 43 1031 106 q 567 -19 761 -19 q 299 24 417 -19 q 115 148 181 67 q 49 340 49 229 q 115 538 49 457 q 297 660 181 619 q 567 701 414 701 q 895 639 761 701 q 1081 468 1029 576 l 1081 681 l 1414 681 m 692 192 q 1081 340 1081 192 q 976 456 1081 422 q 692 489 871 489 q 471 451 547 489 q 394 340 394 414 q 472 229 394 267 q 692 192 549 192 z "},"ă":{"ha":1476,"x_min":49,"x_max":1414,"o":"m 1414 681 l 1414 0 l 1100 0 q 1081 214 1085 88 q 896 43 1031 106 q 567 -19 761 -19 q 299 24 417 -19 q 115 148 181 67 q 49 340 49 229 q 115 538 49 457 q 297 660 181 619 q 567 701 414 701 q 895 639 761 701 q 1081 468 1029 576 l 1081 681 l 1414 681 m 692 192 q 1081 340 1081 192 q 976 456 1081 422 q 692 489 871 489 q 471 451 547 489 q 394 340 394 414 q 472 229 394 267 q 692 192 549 192 z "},"â":{"ha":1476,"x_min":49,"x_max":1414,"o":"m 1414 681 l 1414 0 l 1100 0 q 1081 214 1085 88 q 896 43 1031 106 q 567 -19 761 -19 q 299 24 417 -19 q 115 148 181 67 q 49 340 49 229 q 115 538 49 457 q 297 660 181 619 q 567 701 414 701 q 895 639 761 701 q 1081 468 1029 576 l 1081 681 l 1414 681 m 692 192 q 1081 340 1081 192 q 976 456 1081 422 q 692 489 871 489 q 471 451 547 489 q 394 340 394 414 q 472 229 394 267 q 692 192 549 192 z "},"ä":{"ha":1476,"x_min":49,"x_max":1414,"o":"m 1414 681 l 1414 0 l 1100 0 q 1081 214 1085 88 q 896 43 1031 106 q 567 -19 761 -19 q 299 24 417 -19 q 115 148 181 67 q 49 340 49 229 q 115 538 49 457 q 297 660 181 619 q 567 701 414 701 q 895 639 761 701 q 1081 468 1029 576 l 1081 681 l 1414 681 m 692 192 q 1081 340 1081 192 q 976 456 1081 422 q 692 489 871 489 q 471 451 547 489 q 394 340 394 414 q 472 229 394 267 q 692 192 549 192 z "},"à":{"ha":1476,"x_min":49,"x_max":1414,"o":"m 1414 681 l 1414 0 l 1100 0 q 1081 214 1085 88 q 896 43 1031 106 q 567 -19 761 -19 q 299 24 417 -19 q 115 148 181 67 q 49 340 49 229 q 115 538 49 457 q 297 660 181 619 q 567 701 414 701 q 895 639 761 701 q 1081 468 1029 576 l 1081 681 l 1414 681 m 692 192 q 1081 340 1081 192 q 976 456 1081 422 q 692 489 871 489 q 471 451 547 489 q 394 340 394 414 q 472 229 394 267 q 692 192 549 192 z "},"ā":{"ha":1476,"x_min":49,"x_max":1414,"o":"m 1414 681 l 1414 0 l 1100 0 q 1081 214 1085 88 q 896 43 1031 106 q 567 -19 761 -19 q 299 24 417 -19 q 115 148 181 67 q 49 340 49 229 q 115 538 49 457 q 297 660 181 619 q 567 701 414 701 q 895 639 761 701 q 1081 468 1029 576 l 1081 681 l 1414 681 m 692 192 q 1081 340 1081 192 q 976 456 1081 422 q 692 489 871 489 q 471 451 547 489 q 394 340 394 414 q 472 229 394 267 q 692 192 549 192 z "},"ą":{"ha":1476,"x_min":49,"x_max":1421,"o":"m 1414 681 l 1414 0 l 1100 0 q 1081 214 1085 88 q 896 43 1031 106 q 567 -19 761 -19 q 299 24 417 -19 q 115 148 181 67 q 49 340 49 229 q 115 538 49 457 q 297 660 181 619 q 567 701 414 701 q 895 639 761 701 q 1081 468 1029 576 l 1081 681 l 1414 681 m 692 192 q 1081 340 1081 192 q 976 456 1081 422 q 692 489 871 489 q 471 451 547 489 q 394 340 394 414 q 472 229 394 267 q 692 192 549 192 z "},"å":{"ha":1476,"x_min":49,"x_max":1414,"o":"m 1414 681 l 1414 0 l 1100 0 q 1081 214 1085 88 q 896 43 1031 106 q 567 -19 761 -19 q 299 24 417 -19 q 115 148 181 67 q 49 340 49 229 q 115 538 49 457 q 297 660 181 619 q 567 701 414 701 q 895 639 761 701 q 1081 468 1029 576 l 1081 681 l 1414 681 m 692 192 q 1081 340 1081 192 q 976 456 1081 422 q 692 489 871 489 q 471 451 547 489 q 394 340 394 414 q 472 229 394 267 q 692 192 549 192 z "},"ã":{"ha":1476,"x_min":49,"x_max":1414,"o":"m 1414 681 l 1414 0 l 1100 0 q 1081 214 1085 88 q 896 43 1031 106 q 567 -19 761 -19 q 299 24 417 -19 q 115 148 181 67 q 49 340 49 229 q 115 538 49 457 q 297 660 181 619 q 567 701 414 701 q 895 639 761 701 q 1081 468 1029 576 l 1081 681 l 1414 681 m 692 192 q 1081 340 1081 192 q 976 456 1081 422 q 692 489 871 489 q 471 451 547 489 q 394 340 394 414 q 472 229 394 267 q 692 192 549 192 z "},"æ":{"ha":2660,"x_min":49,"x_max":2613,"o":"m 2006 699 q 2353 661 2221 699 q 2549 539 2486 624 q 2611 313 2613 454 l 1665 313 q 1753 216 1676 253 q 1992 179 1831 179 q 2189 195 2113 179 q 2281 242 2265 211 l 2607 242 q 2440 46 2586 115 q 2006 -24 2293 -24 q 1641 10 1789 -24 q 1414 118 1493 43 l 1414 0 l 1100 0 q 1081 214 1085 88 q 896 43 1031 106 q 567 -19 761 -19 q 299 24 417 -19 q 115 148 181 67 q 49 340 49 229 q 115 538 49 457 q 297 660 181 619 q 567 701 414 701 q 895 639 761 701 q 1081 468 1029 576 l 1081 681 l 1414 681 l 1414 556 q 1640 664 1492 629 q 2006 699 1789 699 m 2288 400 q 2202 467 2275 439 q 1992 494 2129 494 q 1832 480 1900 494 q 1725 444 1764 465 q 1676 400 1686 422 l 2288 400 m 692 192 q 1081 340 1081 192 q 976 456 1081 422 q 692 489 871 489 q 471 451 547 489 q 394 340 394 414 q 472 229 394 267 q 692 192 549 192 z "},"b":{"ha":1525,"x_min":111,"x_max":1476,"o":"m 958 701 q 1228 660 1111 701 q 1410 538 1344 619 q 1476 340 1476 457 q 1410 148 1476 229 q 1226 24 1344 67 q 958 -19 1108 -19 q 629 43 764 -19 q 444 214 494 106 q 425 0 440 88 l 111 0 l 111 958 l 444 958 l 444 468 q 630 639 496 576 q 958 701 764 701 m 833 192 q 1053 229 976 192 q 1131 340 1131 267 q 1054 451 1131 414 q 833 489 978 489 q 549 456 654 489 q 444 340 444 422 q 833 192 444 192 z "},"c":{"ha":1381,"x_min":49,"x_max":1332,"o":"m 1332 296 q 1185 60 1332 142 q 722 -21 1038 -21 q 217 63 386 -21 q 49 339 49 147 q 218 616 49 531 q 722 701 388 701 q 1182 620 1036 701 q 1331 386 1328 539 l 1025 386 q 922 456 1001 429 q 722 483 843 483 q 476 449 563 483 q 389 339 389 415 q 474 230 389 263 q 722 197 560 197 q 923 224 843 197 q 1026 296 1003 251 l 1332 296 z "},"ć":{"ha":1381,"x_min":49,"x_max":1332,"o":"m 1332 296 q 1185 60 1332 142 q 722 -21 1038 -21 q 217 63 386 -21 q 49 339 49 147 q 218 616 49 531 q 722 701 388 701 q 1182 620 1036 701 q 1331 386 1328 539 l 1025 386 q 922 456 1001 429 q 722 483 843 483 q 476 449 563 483 q 389 339 389 415 q 474 230 389 263 q 722 197 560 197 q 923 224 843 197 q 1026 296 1003 251 l 1332 296 z "},"č":{"ha":1381,"x_min":49,"x_max":1332,"o":"m 1332 296 q 1185 60 1332 142 q 722 -21 1038 -21 q 217 63 386 -21 q 49 339 49 147 q 218 616 49 531 q 722 701 388 701 q 1182 620 1036 701 q 1331 386 1328 539 l 1025 386 q 922 456 1001 429 q 722 483 843 483 q 476 449 563 483 q 389 339 389 415 q 474 230 389 263 q 722 197 560 197 q 923 224 843 197 q 1026 296 1003 251 l 1332 296 z "},"ç":{"ha":1381,"x_min":49,"x_max":1332,"o":"m 1332 296 q 1185 60 1332 142 q 722 -21 1038 -21 q 217 63 386 -21 q 49 339 49 147 q 218 616 49 531 q 722 701 388 701 q 1182 620 1036 701 q 1331 386 1328 539 l 1025 386 q 922 456 1001 429 q 722 483 843 483 q 476 449 563 483 q 389 339 389 415 q 474 230 389 263 q 722 197 560 197 q 923 224 843 197 q 1026 296 1003 251 l 1332 296 z "},"ċ":{"ha":1381,"x_min":49,"x_max":1332,"o":"m 1332 296 q 1185 60 1332 142 q 722 -21 1038 -21 q 217 63 386 -21 q 49 339 49 147 q 218 616 49 531 q 722 701 388 701 q 1182 620 1036 701 q 1331 386 1328 539 l 1025 386 q 922 456 1001 429 q 722 483 843 483 q 476 449 563 483 q 389 339 389 415 q 474 230 389 263 q 722 197 560 197 q 923 224 843 197 q 1026 296 1003 251 l 1332 296 z "},"d":{"ha":1525,"x_min":49,"x_max":1414,"o":"m 1414 958 l 1414 0 l 1100 0 q 1081 214 1085 88 q 896 43 1031 106 q 567 -19 761 -19 q 299 24 417 -19 q 115 148 181 67 q 49 340 49 229 q 115 538 49 457 q 297 660 181 619 q 567 701 414 701 q 895 639 761 701 q 1081 468 1029 576 l 1081 958 l 1414 958 m 692 192 q 1081 340 1081 192 q 976 456 1081 422 q 692 489 871 489 q 471 451 547 489 q 394 340 394 414 q 472 229 394 267 q 692 192 549 192 z "},"ð":{"ha":1400,"x_min":49,"x_max":1372,"o":"m 1200 719 q 1311 555 1276 642 q 1346 393 1346 468 q 1160 72 1346 165 q 692 -21 974 -21 q 343 22 488 -21 q 124 145 199 64 q 49 340 49 226 q 183 584 49 508 q 539 660 317 660 q 856 614 718 660 q 1060 486 994 568 q 850 697 1014 626 q 356 767 686 767 l 356 979 q 1076 818 814 979 l 1263 979 l 1372 865 l 1200 719 m 719 192 q 1082 331 1081 192 l 1082 333 q 963 426 1081 399 q 706 454 844 454 q 394 325 394 454 q 476 221 394 250 q 719 192 557 192 z "},"ď":{"ha":1525,"x_min":49,"x_max":1414,"o":"m 1414 958 l 1414 0 l 1100 0 q 1081 214 1085 88 q 896 43 1031 106 q 567 -19 761 -19 q 299 24 417 -19 q 115 148 181 67 q 49 340 49 229 q 115 538 49 457 q 297 660 181 619 q 567 701 414 701 q 895 639 761 701 q 1081 468 1029 576 l 1081 958 l 1414 958 m 692 192 q 1081 340 1081 192 q 976 456 1081 422 q 692 489 871 489 q 471 451 547 489 q 394 340 394 414 q 472 229 394 267 q 692 192 549 192 z "},"đ":{"ha":1525,"x_min":49,"x_max":1511,"o":"m 1511 731 l 1414 731 l 1414 0 l 1100 0 q 1081 214 1085 88 q 896 43 1031 106 q 567 -19 761 -19 q 299 24 417 -19 q 115 148 181 67 q 49 340 49 229 q 115 538 49 457 q 297 660 181 619 q 567 701 414 701 q 895 639 761 701 q 1081 468 1029 576 l 1081 731 l 831 731 l 831 821 l 1081 821 l 1081 958 l 1414 958 l 1414 821 l 1511 821 l 1511 731 m 692 192 q 1081 340 1081 192 q 976 456 1081 422 q 692 489 871 489 q 471 451 547 489 q 394 340 394 414 q 472 229 394 267 q 692 192 549 192 z "},"e":{"ha":1381,"x_min":49,"x_max":1335,"o":"m 1329 244 q 1161 49 1308 118 q 726 -21 1014 -21 q 221 62 393 -21 q 49 339 49 144 q 219 617 49 532 q 726 701 390 701 q 1075 664 942 701 q 1272 542 1208 626 q 1332 315 1335 457 l 388 315 q 475 219 399 256 q 713 182 551 182 q 910 198 833 182 q 1001 244 986 214 l 1329 244 m 713 497 q 553 483 621 497 q 446 448 485 469 q 397 404 407 426 l 1008 404 q 923 470 996 443 q 713 497 850 497 z "},"é":{"ha":1381,"x_min":49,"x_max":1335,"o":"m 1329 244 q 1161 49 1308 118 q 726 -21 1014 -21 q 221 62 393 -21 q 49 339 49 144 q 219 617 49 532 q 726 701 390 701 q 1075 664 942 701 q 1272 542 1208 626 q 1332 315 1335 457 l 388 315 q 475 219 399 256 q 713 182 551 182 q 910 198 833 182 q 1001 244 986 214 l 1329 244 m 713 497 q 553 483 621 497 q 446 448 485 469 q 397 404 407 426 l 1008 404 q 923 470 996 443 q 713 497 850 497 z "},"ě":{"ha":1381,"x_min":49,"x_max":1335,"o":"m 1329 244 q 1161 49 1308 118 q 726 -21 1014 -21 q 221 62 393 -21 q 49 339 49 144 q 219 617 49 532 q 726 701 390 701 q 1075 664 942 701 q 1272 542 1208 626 q 1332 315 1335 457 l 388 315 q 475 219 399 256 q 713 182 551 182 q 910 198 833 182 q 1001 244 986 214 l 1329 244 m 713 497 q 553 483 621 497 q 446 448 485 469 q 397 404 407 426 l 1008 404 q 923 470 996 443 q 713 497 850 497 z "},"ê":{"ha":1381,"x_min":49,"x_max":1335,"o":"m 1329 244 q 1161 49 1308 118 q 726 -21 1014 -21 q 221 62 393 -21 q 49 339 49 144 q 219 617 49 532 q 726 701 390 701 q 1075 664 942 701 q 1272 542 1208 626 q 1332 315 1335 457 l 388 315 q 475 219 399 256 q 713 182 551 182 q 910 198 833 182 q 1001 244 986 214 l 1329 244 m 713 497 q 553 483 621 497 q 446 448 485 469 q 397 404 407 426 l 1008 404 q 923 470 996 443 q 713 497 850 497 z "},"ë":{"ha":1381,"x_min":49,"x_max":1335,"o":"m 1329 244 q 1161 49 1308 118 q 726 -21 1014 -21 q 221 62 393 -21 q 49 339 49 144 q 219 617 49 532 q 726 701 390 701 q 1075 664 942 701 q 1272 542 1208 626 q 1332 315 1335 457 l 388 315 q 475 219 399 256 q 713 182 551 182 q 910 198 833 182 q 1001 244 986 214 l 1329 244 m 713 497 q 553 483 621 497 q 446 448 485 469 q 397 404 407 426 l 1008 404 q 923 470 996 443 q 713 497 850 497 z "},"ė":{"ha":1381,"x_min":49,"x_max":1335,"o":"m 1329 244 q 1161 49 1308 118 q 726 -21 1014 -21 q 221 62 393 -21 q 49 339 49 144 q 219 617 49 532 q 726 701 390 701 q 1075 664 942 701 q 1272 542 1208 626 q 1332 315 1335 457 l 388 315 q 475 219 399 256 q 713 182 551 182 q 910 198 833 182 q 1001 244 986 214 l 1329 244 m 713 497 q 553 483 621 497 q 446 448 485 469 q 397 404 407 426 l 1008 404 q 923 470 996 443 q 713 497 850 497 z "},"è":{"ha":1381,"x_min":49,"x_max":1335,"o":"m 1329 244 q 1161 49 1308 118 q 726 -21 1014 -21 q 221 62 393 -21 q 49 339 49 144 q 219 617 49 532 q 726 701 390 701 q 1075 664 942 701 q 1272 542 1208 626 q 1332 315 1335 457 l 388 315 q 475 219 399 256 q 713 182 551 182 q 910 198 833 182 q 1001 244 986 214 l 1329 244 m 713 497 q 553 483 621 497 q 446 448 485 469 q 397 404 407 426 l 1008 404 q 923 470 996 443 q 713 497 850 497 z "},"ē":{"ha":1381,"x_min":49,"x_max":1335,"o":"m 1329 244 q 1161 49 1308 118 q 726 -21 1014 -21 q 221 62 393 -21 q 49 339 49 144 q 219 617 49 532 q 726 701 390 701 q 1075 664 942 701 q 1272 542 1208 626 q 1332 315 1335 457 l 388 315 q 475 219 399 256 q 713 182 551 182 q 910 198 833 182 q 1001 244 986 214 l 1329 244 m 713 497 q 553 483 621 497 q 446 448 485 469 q 397 404 407 426 l 1008 404 q 923 470 996 443 q 713 497 850 497 z "},"ę":{"ha":1381,"x_min":49,"x_max":1360,"o":"m 1329 244 q 1161 49 1308 118 q 726 -21 1014 -21 q 221 62 393 -21 q 49 339 49 144 q 219 617 49 532 q 726 701 390 701 q 1075 664 942 701 q 1272 542 1208 626 q 1332 315 1335 457 l 388 315 q 475 219 399 256 q 713 182 551 182 q 910 198 833 182 q 1001 244 986 214 l 1329 244 m 713 497 q 553 483 621 497 q 446 448 485 469 q 397 404 407 426 l 1008 404 q 923 470 996 443 q 713 497 850 497 z "},"f":{"ha":936,"x_min":28,"x_max":908,"o":"m 726 736 q 640 731 668 738 q 599 703 611 724 q 588 639 588 682 l 908 639 l 908 431 l 588 431 l 588 0 l 254 0 l 254 431 l 28 431 l 28 639 l 254 639 l 254 708 q 330 898 254 838 q 588 958 406 958 l 908 958 l 908 736 l 726 736 z "},"g":{"ha":1346,"x_min":49,"x_max":1318,"o":"m 1318 703 l 1318 526 q 1276 525 1304 525 q 1057 549 1175 525 q 1194 365 1194 476 q 1056 164 1194 232 q 624 96 918 96 q 460 83 506 96 q 415 38 415 71 q 482 0 415 0 l 892 0 q 1109 -20 1032 0 q 1219 -87 1186 -40 q 1253 -219 1253 -135 l 1253 -299 l 919 -299 l 919 -261 q 883 -213 919 -222 q 767 -204 846 -204 l 379 -204 q 139 -160 201 -204 q 76 -44 76 -115 q 153 68 76 33 q 396 110 229 103 q 133 205 218 135 q 49 393 49 275 q 190 619 49 538 q 624 701 331 701 l 1318 703 m 624 283 q 817 311 756 283 q 878 388 878 339 q 624 492 878 492 q 428 464 490 492 q 365 388 365 436 q 427 311 365 339 q 624 283 489 283 z "},"ğ":{"ha":1346,"x_min":49,"x_max":1318,"o":"m 1318 703 l 1318 526 q 1276 525 1304 525 q 1057 549 1175 525 q 1194 365 1194 476 q 1056 164 1194 232 q 624 96 918 96 q 460 83 506 96 q 415 38 415 71 q 482 0 415 0 l 892 0 q 1109 -20 1032 0 q 1219 -87 1186 -40 q 1253 -219 1253 -135 l 1253 -299 l 919 -299 l 919 -261 q 883 -213 919 -222 q 767 -204 846 -204 l 379 -204 q 139 -160 201 -204 q 76 -44 76 -115 q 153 68 76 33 q 396 110 229 103 q 133 205 218 135 q 49 393 49 275 q 190 619 49 538 q 624 701 331 701 l 1318 703 m 624 283 q 817 311 756 283 q 878 388 878 339 q 624 492 878 492 q 428 464 490 492 q 365 388 365 436 q 427 311 365 339 q 624 283 489 283 z "},"ģ":{"ha":1346,"x_min":49,"x_max":1318,"o":"m 800 776 l 447 776 l 447 986 l 800 986 l 800 776 m 1318 703 l 1318 526 q 1276 525 1304 525 q 1057 549 1175 525 q 1194 365 1194 476 q 1056 164 1194 232 q 624 96 918 96 q 460 83 506 96 q 415 38 415 71 q 482 0 415 0 l 892 0 q 1109 -20 1032 0 q 1219 -87 1186 -40 q 1253 -219 1253 -135 l 1253 -299 l 919 -299 l 919 -261 q 883 -213 919 -222 q 767 -204 846 -204 l 379 -204 q 139 -160 201 -204 q 76 -44 76 -115 q 153 68 76 33 q 396 110 229 103 q 133 205 218 135 q 49 393 49 275 q 190 619 49 538 q 624 701 331 701 l 1318 703 m 624 283 q 817 311 756 283 q 878 388 878 339 q 624 492 878 492 q 428 464 490 492 q 365 388 365 436 q 427 311 365 339 q 624 283 489 283 z "},"ġ":{"ha":1346,"x_min":49,"x_max":1318,"o":"m 1318 703 l 1318 526 q 1276 525 1304 525 q 1057 549 1175 525 q 1194 365 1194 476 q 1056 164 1194 232 q 624 96 918 96 q 460 83 506 96 q 415 38 415 71 q 482 0 415 0 l 892 0 q 1109 -20 1032 0 q 1219 -87 1186 -40 q 1253 -219 1253 -135 l 1253 -299 l 919 -299 l 919 -261 q 883 -213 919 -222 q 767 -204 846 -204 l 379 -204 q 139 -160 201 -204 q 76 -44 76 -115 q 153 68 76 33 q 396 110 229 103 q 133 205 218 135 q 49 393 49 275 q 190 619 49 538 q 624 701 331 701 l 1318 703 m 624 283 q 817 311 756 283 q 878 388 878 339 q 624 492 878 492 q 428 464 490 492 q 365 388 365 436 q 427 311 365 339 q 624 283 489 283 z "},"h":{"ha":1400,"x_min":76,"x_max":1338,"o":"m 910 701 q 1216 628 1094 701 q 1338 392 1338 556 l 1338 0 l 1004 0 l 1004 253 q 978 360 1004 318 q 889 423 953 401 q 713 444 825 444 q 539 423 617 444 q 410 378 461 401 l 410 0 l 76 0 l 76 958 l 410 958 l 410 472 q 504 573 440 521 q 671 663 568 625 q 910 701 774 701 z "},"ħ":{"ha":1400,"x_min":-1,"x_max":1338,"o":"m 910 701 q 1216 628 1094 701 q 1338 392 1338 556 l 1338 0 l 1004 0 l 1004 253 q 978 360 1004 318 q 889 423 953 401 q 713 444 825 444 q 539 423 617 444 q 410 378 461 401 l 410 0 l 76 0 l 76 739 l -1 739 l -1 829 l 76 829 l 76 958 l 410 958 l 410 829 l 679 829 l 679 739 l 410 739 l 410 472 q 504 573 440 521 q 671 663 568 625 q 910 701 774 701 z "},"i":{"ha":506,"x_min":76,"x_max":429,"o":"m 429 829 l 76 829 l 76 1038 l 429 1038 l 429 829 m 419 681 l 419 0 l 86 0 l 86 681 l 419 681 z "},"ı":{"ha":486,"x_min":76,"x_max":410,"o":"m 410 681 l 410 0 l 76 0 l 76 681 l 410 681 z "},"í":{"ha":486,"x_min":67,"x_max":419,"o":"m 410 681 l 410 0 l 76 0 l 76 681 l 410 681 z "},"î":{"ha":486,"x_min":67,"x_max":419,"o":"m 410 681 l 410 0 l 76 0 l 76 681 l 410 681 z "},"ï":{"ha":486,"x_min":-49,"x_max":535,"o":"m 217 836 l -49 836 l -49 1046 l 217 1046 l 217 836 m 535 836 l 269 836 l 269 1046 l 535 1046 l 535 836 m 410 681 l 410 0 l 76 0 l 76 681 l 410 681 z "},"ì":{"ha":486,"x_min":67,"x_max":419,"o":"m 410 681 l 410 0 l 76 0 l 76 681 l 410 681 z "},"ĳ":{"ha":1011,"x_min":76,"x_max":935,"o":"m 429 829 l 76 829 l 76 1038 l 429 1038 l 429 829 m 419 681 l 419 0 l 86 0 l 86 681 l 419 681 m 935 829 l 582 829 l 582 1038 l 935 1038 l 935 829 m 925 681 l 925 -278 l 592 -278 l 592 681 l 925 681 z "},"ī":{"ha":486,"x_min":67,"x_max":419,"o":"m 410 681 l 410 0 l 76 0 l 76 681 l 410 681 z "},"į":{"ha":506,"x_min":76,"x_max":544,"o":"m 429 829 l 76 829 l 76 1038 l 429 1038 l 429 829 m 419 681 l 419 0 l 86 0 l 86 681 l 419 681 z "},"j":{"ha":506,"x_min":76,"x_max":429,"o":"m 429 829 l 76 829 l 76 1038 l 429 1038 l 429 829 m 419 681 l 419 -278 l 86 -278 l 86 681 l 419 681 z "},"k":{"ha":1308,"x_min":76,"x_max":1301,"o":"m 76 958 l 410 958 l 410 0 l 76 0 l 76 958 m 1301 0 l 879 -3 l 415 388 l 813 681 l 1254 681 l 829 383 l 1301 0 z "},"ķ":{"ha":1308,"x_min":76,"x_max":1301,"o":"m 76 958 l 410 958 l 410 0 l 76 0 l 76 958 m 1301 0 l 879 -3 l 415 388 l 813 681 l 1254 681 l 829 383 l 1301 0 z "},"l":{"ha":500,"x_min":83,"x_max":417,"o":"m 417 958 l 417 0 l 83 0 l 83 958 l 417 958 z "},"ĺ":{"ha":500,"x_min":83,"x_max":436,"o":"m 417 958 l 417 0 l 83 0 l 83 958 l 417 958 z "},"ľ":{"ha":853,"x_min":83,"x_max":853,"o":"m 417 958 l 417 0 l 83 0 l 83 958 l 417 958 z "},"ļ":{"ha":500,"x_min":75,"x_max":428,"o":"m 417 958 l 417 0 l 83 0 l 83 958 l 417 958 z "},"ŀ":{"ha":915,"x_min":83,"x_max":832,"o":"m 417 958 l 417 0 l 83 0 l 83 958 l 417 958 z "},"ł":{"ha":529,"x_min":-42,"x_max":571,"o":"m 432 540 l 432 0 l 99 0 l 99 313 l 7 250 l -42 324 l 99 419 l 99 958 l 432 958 l 432 649 l 519 708 l 571 635 l 432 540 z "},"m":{"ha":2297,"x_min":63,"x_max":2235,"o":"m 1807 701 q 2115 616 1994 701 q 2235 329 2235 531 l 2235 0 l 1901 0 l 1901 288 q 1878 400 1901 358 q 1800 460 1854 442 q 1651 479 1746 479 q 1463 452 1549 479 q 1319 393 1378 425 q 1324 329 1324 364 l 1324 0 l 990 0 l 990 288 q 967 400 990 358 q 889 460 943 442 q 740 479 835 479 q 540 449 629 479 q 396 386 450 418 l 396 0 l 63 0 l 63 681 l 396 681 l 396 471 q 490 574 426 522 q 656 664 553 626 q 896 701 760 701 q 1153 648 1044 701 q 1303 471 1263 594 q 1400 570 1332 517 q 1573 663 1468 624 q 1807 701 1678 701 z "},"n":{"ha":1386,"x_min":63,"x_max":1324,"o":"m 896 701 q 1203 616 1083 701 q 1324 329 1324 531 l 1324 0 l 990 0 l 990 288 q 967 400 990 358 q 889 460 943 442 q 740 479 835 479 q 540 449 629 479 q 396 386 450 418 l 396 0 l 63 0 l 63 681 l 396 681 l 396 471 q 490 574 426 522 q 656 664 553 626 q 896 701 760 701 z "},"ń":{"ha":1386,"x_min":63,"x_max":1324,"o":"m 896 701 q 1203 616 1083 701 q 1324 329 1324 531 l 1324 0 l 990 0 l 990 288 q 967 400 990 358 q 889 460 943 442 q 740 479 835 479 q 540 449 629 479 q 396 386 450 418 l 396 0 l 63 0 l 63 681 l 396 681 l 396 471 q 490 574 426 522 q 656 664 553 626 q 896 701 760 701 z "},"ň":{"ha":1386,"x_min":63,"x_max":1324,"o":"m 896 701 q 1203 616 1083 701 q 1324 329 1324 531 l 1324 0 l 990 0 l 990 288 q 967 400 990 358 q 889 460 943 442 q 740 479 835 479 q 540 449 629 479 q 396 386 450 418 l 396 0 l 63 0 l 63 681 l 396 681 l 396 471 q 490 574 426 522 q 656 664 553 626 q 896 701 760 701 z "},"ņ":{"ha":1386,"x_min":63,"x_max":1324,"o":"m 896 701 q 1203 616 1083 701 q 1324 329 1324 531 l 1324 0 l 990 0 l 990 288 q 967 400 990 358 q 889 460 943 442 q 740 479 835 479 q 540 449 629 479 q 396 386 450 418 l 396 0 l 63 0 l 63 681 l 396 681 l 396 471 q 490 574 426 522 q 656 664 553 626 q 896 701 760 701 z "},"ŋ":{"ha":1386,"x_min":63,"x_max":1324,"o":"m 896 701 q 1203 616 1083 701 q 1324 329 1324 531 l 1324 -97 q 1278 -224 1324 -182 q 1117 -282 1233 -265 q 768 -299 1001 -299 l 768 -69 q 906 -64 858 -69 q 972 -44 953 -58 q 990 0 990 -29 l 990 288 q 967 400 990 358 q 889 460 943 442 q 740 479 835 479 q 540 449 629 479 q 396 386 450 418 l 396 0 l 63 0 l 63 681 l 396 681 l 396 471 q 490 574 426 522 q 656 664 553 626 q 896 701 760 701 z "},"ñ":{"ha":1386,"x_min":63,"x_max":1324,"o":"m 896 701 q 1203 616 1083 701 q 1324 329 1324 531 l 1324 0 l 990 0 l 990 288 q 967 400 990 358 q 889 460 943 442 q 740 479 835 479 q 540 449 629 479 q 396 386 450 418 l 396 0 l 63 0 l 63 681 l 396 681 l 396 471 q 490 574 426 522 q 656 664 553 626 q 896 701 760 701 z "},"o":{"ha":1411,"x_min":49,"x_max":1363,"o":"m 708 -21 q 210 64 371 -21 q 49 339 49 149 q 210 615 49 529 q 708 701 372 701 q 1202 615 1042 701 q 1363 339 1363 529 q 1203 64 1363 149 q 708 -21 1043 -21 m 708 188 q 942 226 863 188 q 1022 339 1022 264 q 942 453 1022 414 q 708 493 863 493 q 471 453 553 493 q 389 339 389 414 q 470 226 389 264 q 708 188 551 188 z "},"ó":{"ha":1411,"x_min":49,"x_max":1363,"o":"m 708 -21 q 210 64 371 -21 q 49 339 49 149 q 210 615 49 529 q 708 701 372 701 q 1202 615 1042 701 q 1363 339 1363 529 q 1203 64 1363 149 q 708 -21 1043 -21 m 708 188 q 942 226 863 188 q 1022 339 1022 264 q 942 453 1022 414 q 708 493 863 493 q 471 453 553 493 q 389 339 389 414 q 470 226 389 264 q 708 188 551 188 z "},"ô":{"ha":1411,"x_min":49,"x_max":1363,"o":"m 708 -21 q 210 64 371 -21 q 49 339 49 149 q 210 615 49 529 q 708 701 372 701 q 1202 615 1042 701 q 1363 339 1363 529 q 1203 64 1363 149 q 708 -21 1043 -21 m 708 188 q 942 226 863 188 q 1022 339 1022 264 q 942 453 1022 414 q 708 493 863 493 q 471 453 553 493 q 389 339 389 414 q 470 226 389 264 q 708 188 551 188 z "},"ö":{"ha":1411,"x_min":49,"x_max":1363,"o":"m 708 -21 q 210 64 371 -21 q 49 339 49 149 q 210 615 49 529 q 708 701 372 701 q 1202 615 1042 701 q 1363 339 1363 529 q 1203 64 1363 149 q 708 -21 1043 -21 m 708 188 q 942 226 863 188 q 1022 339 1022 264 q 942 453 1022 414 q 708 493 863 493 q 471 453 553 493 q 389 339 389 414 q 470 226 389 264 q 708 188 551 188 z "},"ò":{"ha":1411,"x_min":49,"x_max":1363,"o":"m 708 -21 q 210 64 371 -21 q 49 339 49 149 q 210 615 49 529 q 708 701 372 701 q 1202 615 1042 701 q 1363 339 1363 529 q 1203 64 1363 149 q 708 -21 1043 -21 m 708 188 q 942 226 863 188 q 1022 339 1022 264 q 942 453 1022 414 q 708 493 863 493 q 471 453 553 493 q 389 339 389 414 q 470 226 389 264 q 708 188 551 188 z "},"ő":{"ha":1411,"x_min":49,"x_max":1363,"o":"m 708 -21 q 210 64 371 -21 q 49 339 49 149 q 210 615 49 529 q 708 701 372 701 q 1202 615 1042 701 q 1363 339 1363 529 q 1203 64 1363 149 q 708 -21 1043 -21 m 708 188 q 942 226 863 188 q 1022 339 1022 264 q 942 453 1022 414 q 708 493 863 493 q 471 453 553 493 q 389 339 389 414 q 470 226 389 264 q 708 188 551 188 z "},"ō":{"ha":1411,"x_min":49,"x_max":1363,"o":"m 708 -21 q 210 64 371 -21 q 49 339 49 149 q 210 615 49 529 q 708 701 372 701 q 1202 615 1042 701 q 1363 339 1363 529 q 1203 64 1363 149 q 708 -21 1043 -21 m 708 188 q 942 226 863 188 q 1022 339 1022 264 q 942 453 1022 414 q 708 493 863 493 q 471 453 553 493 q 389 339 389 414 q 470 226 389 264 q 708 188 551 188 z "},"ø":{"ha":1411,"x_min":49,"x_max":1363,"o":"m 957 686 q 1263 574 1163 658 q 1363 339 1363 490 q 1203 64 1363 149 q 708 -21 1043 -21 q 542 -15 610 -21 l 479 -121 l 407 -76 l 449 -6 q 147 106 246 22 q 49 339 49 189 q 210 615 49 529 q 708 701 372 701 q 863 696 800 701 l 929 808 l 1004 767 l 957 686 m 389 339 q 568 197 389 226 l 743 493 l 708 493 q 471 453 553 493 q 389 339 389 414 m 708 188 q 942 226 863 188 q 1022 339 1022 264 q 976 433 1022 396 q 838 485 929 471 l 663 189 q 708 188 676 188 z "},"õ":{"ha":1411,"x_min":49,"x_max":1363,"o":"m 708 -21 q 210 64 371 -21 q 49 339 49 149 q 210 615 49 529 q 708 701 372 701 q 1202 615 1042 701 q 1363 339 1363 529 q 1203 64 1363 149 q 708 -21 1043 -21 m 708 188 q 942 226 863 188 q 1022 339 1022 264 q 942 453 1022 414 q 708 493 863 493 q 471 453 553 493 q 389 339 389 414 q 470 226 389 264 q 708 188 551 188 z "},"œ":{"ha":2494,"x_min":49,"x_max":2447,"o":"m 1840 701 q 2188 664 2056 701 q 2384 542 2321 626 q 2446 315 2447 457 l 1500 315 q 1588 219 1511 256 q 1826 182 1665 182 q 2024 198 1947 182 q 2115 244 2100 214 l 2442 244 q 2274 49 2421 118 q 1840 -21 2128 -21 q 1491 9 1635 -21 q 1265 107 1347 39 q 1052 10 1190 40 q 708 -21 914 -21 q 210 64 371 -21 q 49 339 49 149 q 210 615 49 529 q 708 701 372 701 q 1051 670 913 701 q 1265 572 1189 639 q 1490 670 1346 639 q 1840 701 1633 701 m 2122 404 q 2037 470 2110 443 q 1826 497 1964 497 q 1667 483 1735 497 q 1560 448 1599 469 q 1511 404 1521 426 l 2122 404 m 708 188 q 942 226 863 188 q 1022 339 1022 264 q 942 453 1022 414 q 708 493 863 493 q 471 453 553 493 q 389 339 389 414 q 470 226 389 264 q 708 188 551 188 z "},"p":{"ha":1476,"x_min":63,"x_max":1428,"o":"m 910 700 q 1178 657 1060 700 q 1362 533 1296 614 q 1428 340 1428 451 q 1362 142 1428 224 q 1179 20 1296 61 q 910 -21 1063 -21 q 581 42 715 -21 q 396 213 447 104 l 396 -278 l 63 -278 l 63 681 l 376 681 l 393 460 q 577 636 442 572 q 910 700 713 700 m 785 192 q 1006 229 929 192 q 1082 340 1082 267 q 1005 451 1082 414 q 785 489 928 489 q 396 340 396 489 q 501 225 396 258 q 785 192 606 192 z "},"þ":{"ha":1476,"x_min":63,"x_max":1428,"o":"m 910 700 q 1178 657 1060 700 q 1362 533 1296 614 q 1428 340 1428 451 q 1362 142 1428 224 q 1179 20 1296 61 q 910 -21 1063 -21 q 581 42 715 -21 q 396 213 447 104 l 396 -278 l 63 -278 l 63 958 l 396 958 l 396 468 q 581 638 447 576 q 910 700 715 700 m 785 192 q 1006 229 929 192 q 1082 340 1082 267 q 1005 451 1082 414 q 785 489 928 489 q 396 340 396 489 q 501 225 396 258 q 785 192 606 192 z "},"q":{"ha":1525,"x_min":49,"x_max":1414,"o":"m 1414 681 l 1414 -278 l 1081 -278 l 1081 213 q 895 42 1029 104 q 567 -21 761 -21 q 297 20 414 -21 q 115 142 181 61 q 49 340 49 224 q 115 533 49 451 q 299 657 181 614 q 567 700 417 700 q 899 636 764 700 q 1083 460 1035 572 l 1100 681 l 1414 681 m 692 192 q 976 225 871 192 q 1081 340 1081 258 q 692 489 1081 489 q 472 451 549 489 q 394 340 394 414 q 471 229 394 267 q 692 192 547 192 z "},"r":{"ha":782,"x_min":63,"x_max":754,"o":"m 754 424 q 534 394 624 424 q 396 332 444 364 l 396 0 l 63 0 l 63 681 l 396 681 l 396 446 q 469 564 421 506 q 590 662 517 622 q 754 701 664 701 l 754 424 z "},"ŕ":{"ha":782,"x_min":63,"x_max":754,"o":"m 754 424 q 534 394 624 424 q 396 332 444 364 l 396 0 l 63 0 l 63 681 l 396 681 l 396 446 q 469 564 421 506 q 590 662 517 622 q 754 701 664 701 l 754 424 z "},"ř":{"ha":782,"x_min":63,"x_max":754,"o":"m 754 424 q 534 394 624 424 q 396 332 444 364 l 396 0 l 63 0 l 63 681 l 396 681 l 396 446 q 469 564 421 506 q 590 662 517 622 q 754 701 664 701 l 754 424 z "},"ŗ":{"ha":782,"x_min":54,"x_max":754,"o":"m 754 424 q 534 394 624 424 q 396 332 444 364 l 396 0 l 63 0 l 63 681 l 396 681 l 396 446 q 469 564 421 506 q 590 662 517 622 q 754 701 664 701 l 754 424 z "},"s":{"ha":1169,"x_min":49,"x_max":1121,"o":"m 363 244 q 432 199 381 210 q 594 189 483 189 q 738 201 703 189 q 774 240 774 214 q 708 286 774 274 q 479 299 643 299 q 241 313 333 299 q 99 365 149 326 q 49 472 49 403 q 594 701 49 701 q 876 667 763 701 q 1043 572 989 632 q 1096 436 1097 513 l 797 436 q 740 482 782 471 q 594 493 699 493 q 440 481 485 493 q 396 439 396 469 q 419 404 396 417 q 505 385 442 392 q 690 379 568 379 q 917 369 829 379 q 1063 321 1004 360 q 1121 201 1121 282 q 594 -21 1121 -21 q 270 18 390 -21 q 103 113 150 57 q 56 228 56 169 l 56 244 l 363 244 z "},"ś":{"ha":1169,"x_min":49,"x_max":1121,"o":"m 363 244 q 432 199 381 210 q 594 189 483 189 q 738 201 703 189 q 774 240 774 214 q 708 286 774 274 q 479 299 643 299 q 241 313 333 299 q 99 365 149 326 q 49 472 49 403 q 594 701 49 701 q 876 667 763 701 q 1043 572 989 632 q 1096 436 1097 513 l 797 436 q 740 482 782 471 q 594 493 699 493 q 440 481 485 493 q 396 439 396 469 q 419 404 396 417 q 505 385 442 392 q 690 379 568 379 q 917 369 829 379 q 1063 321 1004 360 q 1121 201 1121 282 q 594 -21 1121 -21 q 270 18 390 -21 q 103 113 150 57 q 56 228 56 169 l 56 244 l 363 244 z "},"š":{"ha":1169,"x_min":49,"x_max":1121,"o":"m 363 244 q 432 199 381 210 q 594 189 483 189 q 738 201 703 189 q 774 240 774 214 q 708 286 774 274 q 479 299 643 299 q 241 313 333 299 q 99 365 149 326 q 49 472 49 403 q 594 701 49 701 q 876 667 763 701 q 1043 572 989 632 q 1096 436 1097 513 l 797 436 q 740 482 782 471 q 594 493 699 493 q 440 481 485 493 q 396 439 396 469 q 419 404 396 417 q 505 385 442 392 q 690 379 568 379 q 917 369 829 379 q 1063 321 1004 360 q 1121 201 1121 282 q 594 -21 1121 -21 q 270 18 390 -21 q 103 113 150 57 q 56 228 56 169 l 56 244 l 363 244 m 517 -351 l 517 -143 l 869 -143 l 869 -351 l 517 -351 z "},"ş":{"ha":1169,"x_min":49,"x_max":1121,"o":"m 363 244 q 432 199 381 210 q 594 189 483 189 q 738 201 703 189 q 774 240 774 214 q 708 286 774 274 q 479 299 643 299 q 241 313 333 299 q 99 365 149 326 q 49 472 49 403 q 594 701 49 701 q 876 667 763 701 q 1043 572 989 632 q 1096 436 1097 513 l 797 436 q 740 482 782 471 q 594 493 699 493 q 440 481 485 493 q 396 439 396 469 q 419 404 396 417 q 505 385 442 392 q 690 379 568 379 q 917 369 829 379 q 1063 321 1004 360 q 1121 201 1121 282 q 594 -21 1121 -21 q 270 18 390 -21 q 103 113 150 57 q 56 228 56 169 l 56 244 l 363 244 z "},"ș":{"ha":1169,"x_min":49,"x_max":1121,"o":"m 363 244 q 432 199 381 210 q 594 189 483 189 q 738 201 703 189 q 774 240 774 214 q 708 286 774 274 q 479 299 643 299 q 241 313 333 299 q 99 365 149 326 q 49 472 49 403 q 594 701 49 701 q 876 667 763 701 q 1043 572 989 632 q 1096 436 1097 513 l 797 436 q 740 482 782 471 q 594 493 699 493 q 440 481 485 493 q 396 439 396 469 q 419 404 396 417 q 505 385 442 392 q 690 379 568 379 q 917 369 829 379 q 1063 321 1004 360 q 1121 201 1121 282 q 594 -21 1121 -21 q 270 18 390 -21 q 103 113 150 57 q 56 228 56 169 l 56 244 l 363 244 z "},"ß":{"ha":1581,"x_min":76,"x_max":1567,"o":"m 1103 279 q 1442 215 1318 268 q 1567 36 1567 161 q 1458 -168 1567 -100 q 1169 -257 1349 -236 q 707 -278 990 -278 l 707 -64 q 1053 -59 954 -64 q 1190 -37 1153 -54 q 1226 24 1226 -19 q 1192 84 1226 67 q 1065 106 1157 101 q 749 111 974 111 l 707 111 l 707 311 l 990 431 l 410 431 l 410 0 l 76 0 l 76 708 q 152 898 76 838 q 410 958 228 958 l 776 958 l 776 736 l 507 736 q 432 714 454 738 q 410 639 410 690 l 410 639 l 1461 639 l 1461 472 l 1103 279 z "},"t":{"ha":872,"x_min":28,"x_max":844,"o":"m 844 472 l 603 472 l 603 0 l 269 0 l 269 472 l 28 472 l 28 681 l 269 681 l 269 889 l 603 889 l 603 681 l 844 681 l 844 472 z "},"ŧ":{"ha":872,"x_min":28,"x_max":844,"o":"m 844 472 l 603 472 l 603 0 l 269 0 l 269 472 l 28 472 l 28 681 l 269 681 l 269 889 l 603 889 l 603 681 l 844 681 l 844 472 z "},"ť":{"ha":872,"x_min":28,"x_max":844,"o":"m 844 472 l 603 472 l 603 0 l 269 0 l 269 472 l 28 472 l 28 681 l 269 681 l 269 889 l 603 889 l 603 681 l 844 681 l 844 472 z "},"ţ":{"ha":872,"x_min":28,"x_max":844,"o":"m 844 472 l 603 472 l 603 0 l 269 0 l 269 472 l 28 472 l 28 681 l 269 681 l 269 889 l 603 889 l 603 681 l 844 681 l 844 472 z "},"ț":{"ha":872,"x_min":28,"x_max":844,"o":"m 844 472 l 603 472 l 603 0 l 269 0 l 269 472 l 28 472 l 28 681 l 269 681 l 269 889 l 603 889 l 603 681 l 844 681 l 844 472 z "},"u":{"ha":1386,"x_min":63,"x_max":1324,"o":"m 1324 681 l 1324 0 l 990 0 l 990 235 q 898 117 961 176 q 737 19 835 58 q 518 -21 639 -21 q 188 67 314 -21 q 63 358 63 154 l 63 681 l 396 681 l 396 393 q 422 276 396 317 q 501 218 447 235 q 646 201 554 201 q 851 245 763 201 q 990 338 939 289 l 990 681 l 1324 681 z "},"ú":{"ha":1386,"x_min":63,"x_max":1324,"o":"m 1324 681 l 1324 0 l 990 0 l 990 235 q 898 117 961 176 q 737 19 835 58 q 518 -21 639 -21 q 188 67 314 -21 q 63 358 63 154 l 63 681 l 396 681 l 396 393 q 422 276 396 317 q 501 218 447 235 q 646 201 554 201 q 851 245 763 201 q 990 338 939 289 l 990 681 l 1324 681 z "},"û":{"ha":1386,"x_min":63,"x_max":1324,"o":"m 1324 681 l 1324 0 l 990 0 l 990 235 q 898 117 961 176 q 737 19 835 58 q 518 -21 639 -21 q 188 67 314 -21 q 63 358 63 154 l 63 681 l 396 681 l 396 393 q 422 276 396 317 q 501 218 447 235 q 646 201 554 201 q 851 245 763 201 q 990 338 939 289 l 990 681 l 1324 681 z "},"ü":{"ha":1386,"x_min":63,"x_max":1324,"o":"m 1324 681 l 1324 0 l 990 0 l 990 235 q 898 117 961 176 q 737 19 835 58 q 518 -21 639 -21 q 188 67 314 -21 q 63 358 63 154 l 63 681 l 396 681 l 396 393 q 422 276 396 317 q 501 218 447 235 q 646 201 554 201 q 851 245 763 201 q 990 338 939 289 l 990 681 l 1324 681 z "},"ù":{"ha":1386,"x_min":63,"x_max":1324,"o":"m 1324 681 l 1324 0 l 990 0 l 990 235 q 898 117 961 176 q 737 19 835 58 q 518 -21 639 -21 q 188 67 314 -21 q 63 358 63 154 l 63 681 l 396 681 l 396 393 q 422 276 396 317 q 501 218 447 235 q 646 201 554 201 q 851 245 763 201 q 990 338 939 289 l 990 681 l 1324 681 z "},"ű":{"ha":1386,"x_min":63,"x_max":1324,"o":"m 1324 681 l 1324 0 l 990 0 l 990 235 q 898 117 961 176 q 737 19 835 58 q 518 -21 639 -21 q 188 67 314 -21 q 63 358 63 154 l 63 681 l 396 681 l 396 393 q 422 276 396 317 q 501 218 447 235 q 646 201 554 201 q 851 245 763 201 q 990 338 939 289 l 990 681 l 1324 681 z "},"ū":{"ha":1386,"x_min":63,"x_max":1324,"o":"m 1324 681 l 1324 0 l 990 0 l 990 235 q 898 117 961 176 q 737 19 835 58 q 518 -21 639 -21 q 188 67 314 -21 q 63 358 63 154 l 63 681 l 396 681 l 396 393 q 422 276 396 317 q 501 218 447 235 q 646 201 554 201 q 851 245 763 201 q 990 338 939 289 l 990 681 l 1324 681 z "},"ų":{"ha":1386,"x_min":63,"x_max":1347,"o":"m 1324 681 l 1324 0 l 990 0 l 990 235 q 898 117 961 176 q 737 19 835 58 q 518 -21 639 -21 q 188 67 314 -21 q 63 358 63 154 l 63 681 l 396 681 l 396 393 q 422 276 396 317 q 501 218 447 235 q 646 201 554 201 q 851 245 763 201 q 990 338 939 289 l 990 681 l 1324 681 z "},"ů":{"ha":1386,"x_min":63,"x_max":1324,"o":"m 1324 681 l 1324 0 l 990 0 l 990 235 q 898 117 961 176 q 737 19 835 58 q 518 -21 639 -21 q 188 67 314 -21 q 63 358 63 154 l 63 681 l 396 681 l 396 393 q 422 276 396 317 q 501 218 447 235 q 646 201 554 201 q 851 245 763 201 q 990 338 939 289 l 990 681 l 1324 681 z "},"v":{"ha":1275,"x_min":7,"x_max":1268,"o":"m 1268 681 l 783 0 l 469 0 l 7 681 l 374 681 l 631 254 l 900 681 l 1268 681 z "},"w":{"ha":2031,"x_min":7,"x_max":2024,"o":"m 2024 681 l 1581 0 l 1267 0 l 1011 401 l 742 0 l 428 0 l 7 681 l 374 681 l 600 263 l 831 681 l 1199 681 l 1417 263 l 1656 681 l 2024 681 z "},"ẃ":{"ha":2031,"x_min":7,"x_max":2024,"o":"m 2024 681 l 1581 0 l 1267 0 l 1011 401 l 742 0 l 428 0 l 7 681 l 374 681 l 600 263 l 831 681 l 1199 681 l 1417 263 l 1656 681 l 2024 681 z "},"ŵ":{"ha":2031,"x_min":7,"x_max":2024,"o":"m 2024 681 l 1581 0 l 1267 0 l 1011 401 l 742 0 l 428 0 l 7 681 l 374 681 l 600 263 l 831 681 l 1199 681 l 1417 263 l 1656 681 l 2024 681 z "},"ẅ":{"ha":2031,"x_min":7,"x_max":2024,"o":"m 2024 681 l 1581 0 l 1267 0 l 1011 401 l 742 0 l 428 0 l 7 681 l 374 681 l 600 263 l 831 681 l 1199 681 l 1417 263 l 1656 681 l 2024 681 z "},"ẁ":{"ha":2031,"x_min":7,"x_max":2024,"o":"m 2024 681 l 1581 0 l 1267 0 l 1011 401 l 742 0 l 428 0 l 7 681 l 374 681 l 600 263 l 831 681 l 1199 681 l 1417 263 l 1656 681 l 2024 681 z "},"x":{"ha":1361,"x_min":14,"x_max":1347,"o":"m 939 0 l 665 200 l 422 0 l 14 0 l 474 340 l 14 681 l 422 681 l 676 496 l 911 681 l 1319 681 l 868 356 l 1347 0 l 939 0 z "},"y":{"ha":1292,"x_min":7,"x_max":1285,"o":"m 1285 681 l 608 -278 l 268 -278 l 476 4 l 7 681 l 361 681 l 638 236 l 931 681 l 1285 681 z "},"ý":{"ha":1292,"x_min":7,"x_max":1285,"o":"m 1285 681 l 608 -278 l 268 -278 l 476 4 l 7 681 l 361 681 l 638 236 l 931 681 l 1285 681 z "},"ŷ":{"ha":1292,"x_min":7,"x_max":1285,"o":"m 1285 681 l 608 -278 l 268 -278 l 476 4 l 7 681 l 361 681 l 638 236 l 931 681 l 1285 681 z "},"ÿ":{"ha":1292,"x_min":7,"x_max":1285,"o":"m 1285 681 l 608 -278 l 268 -278 l 476 4 l 7 681 l 361 681 l 638 236 l 931 681 l 1285 681 z "},"ỳ":{"ha":1292,"x_min":7,"x_max":1285,"o":"m 1285 681 l 608 -278 l 268 -278 l 476 4 l 7 681 l 361 681 l 638 236 l 931 681 l 1285 681 z "},"z":{"ha":1244,"x_min":83,"x_max":1161,"o":"m 1161 208 l 1161 0 l 83 0 l 83 208 l 692 472 l 83 472 l 83 681 l 1153 681 l 1153 472 l 539 208 l 1161 208 z "},"ź":{"ha":1244,"x_min":83,"x_max":1161,"o":"m 1161 208 l 1161 0 l 83 0 l 83 208 l 692 472 l 83 472 l 83 681 l 1153 681 l 1153 472 l 539 208 l 1161 208 z "},"ž":{"ha":1244,"x_min":83,"x_max":1161,"o":"m 1161 208 l 1161 0 l 83 0 l 83 208 l 692 472 l 83 472 l 83 681 l 1153 681 l 1153 472 l 539 208 l 1161 208 z "},"ż":{"ha":1244,"x_min":83,"x_max":1161,"o":"m 1161 208 l 1161 0 l 83 0 l 83 208 l 692 472 l 83 472 l 83 681 l 1153 681 l 1153 472 l 539 208 l 1161 208 z "},"ﬁ":{"ha":1471,"x_min":28,"x_max":1394,"o":"m 726 736 q 640 731 668 738 q 599 703 611 724 q 588 639 588 682 l 1394 639 l 1394 0 l 1061 0 l 1061 431 l 908 431 l 908 431 l 588 431 l 588 0 l 254 0 l 254 431 l 28 431 l 28 639 l 254 639 l 254 708 q 330 898 254 838 q 588 958 406 958 l 1394 958 l 1394 736 l 726 736 z "},"ª":{"ha":1393,"x_min":49,"x_max":1331,"o":"m 1331 958 l 1331 403 l 1017 403 q 999 590 1003 483 q 817 442 947 500 q 511 383 686 383 q 271 420 376 383 q 107 524 165 457 q 49 681 49 592 q 107 842 49 775 q 269 944 165 910 q 511 979 374 979 q 815 923 685 979 q 997 781 944 867 l 997 958 l 1331 958 m 608 590 q 886 612 775 590 q 997 681 997 633 q 887 750 997 729 q 608 771 776 771 q 449 749 503 771 q 394 681 394 728 q 608 590 394 590 z "},"º":{"ha":1411,"x_min":104,"x_max":1307,"o":"m 708 382 q 256 452 408 382 q 104 679 104 522 q 257 908 104 836 q 708 979 410 979 q 1156 908 1004 979 q 1307 679 1307 836 q 1157 451 1307 521 q 708 382 1007 382 m 708 579 q 915 605 857 579 q 974 679 974 631 q 915 755 974 728 q 708 782 857 782 q 498 755 558 782 q 438 679 438 728 q 497 605 438 631 q 708 579 556 579 z "},"Δ":{"ha":1500,"x_min":56,"x_max":1444,"o":"m 1444 0 l 56 0 l 750 972 l 1444 0 m 465 208 l 1035 208 l 750 603 l 465 208 z "},"Ω":{"ha":1694,"x_min":28,"x_max":1667,"o":"m 1235 200 l 1611 208 l 1611 0 l 983 0 l 983 278 q 1171 318 1103 299 q 1279 371 1239 338 q 1319 460 1319 404 q 1274 569 1319 526 q 1126 632 1229 611 q 847 653 1022 653 q 569 632 672 653 q 420 569 465 611 q 375 460 375 526 q 417 368 375 403 q 530 315 458 333 q 722 278 601 296 l 722 0 l 83 0 l 83 208 l 457 200 l 457 242 q 145 313 263 251 q 28 518 28 374 q 128 729 28 639 q 414 868 229 819 q 847 917 599 917 q 1281 868 1096 917 q 1566 729 1465 819 q 1667 518 1667 639 q 1546 313 1667 374 q 1235 242 1425 251 l 1235 200 z "},"μ":{"ha":1476,"x_min":63,"x_max":1449,"o":"m 1324 347 q 1353 281 1324 297 q 1449 264 1383 264 l 1449 0 q 1103 54 1208 0 q 990 219 997 108 q 871 51 956 122 q 643 -21 786 -21 q 492 6 553 -21 q 396 90 431 33 l 396 -278 l 63 -278 l 63 681 l 396 681 l 396 421 q 465 249 396 296 q 660 201 535 201 q 858 244 775 201 q 990 336 942 288 l 990 681 l 1324 681 l 1324 347 z "},"π":{"ha":1583,"x_min":69,"x_max":1514,"o":"m 1278 472 l 1278 332 q 1297 242 1278 271 q 1363 204 1315 214 q 1514 194 1411 194 l 1514 -14 q 1186 19 1311 -14 q 1003 122 1061 51 q 944 304 944 192 l 944 472 l 639 472 l 639 0 l 306 0 l 306 472 l 69 472 l 69 681 l 1514 681 l 1514 472 l 1278 472 z "},"¹":{"ha":371,"x_min":69,"x_max":301,"o":"m 301 972 l 301 556 l 207 556 l 207 878 l 69 878 l 69 972 l 301 972 z "},"²":{"ha":458,"x_min":69,"x_max":389,"o":"m 389 644 l 389 556 l 82 556 l 82 643 q 196 725 125 676 q 271 781 250 760 q 292 829 292 801 q 275 872 292 856 q 226 889 258 889 q 181 872 199 889 q 163 829 163 854 q 165 808 163 822 l 74 808 q 69 842 69 825 q 115 944 69 901 q 226 986 161 986 q 344 942 299 986 q 389 829 389 899 q 369 753 389 783 q 310 699 349 722 q 199 640 272 675 l 389 644 z "},"³":{"ha":436,"x_min":69,"x_max":367,"o":"m 281 768 q 367 668 367 750 q 328 581 367 617 q 218 544 290 544 q 109 582 149 544 q 69 674 69 619 q 71 697 69 689 l 163 697 q 172 657 158 675 q 218 639 186 639 q 258 652 244 639 q 271 685 271 665 q 256 721 271 707 q 211 735 240 735 l 163 735 l 163 803 l 211 803 q 265 846 265 803 q 252 879 265 867 q 214 892 239 892 q 174 876 188 892 q 163 840 160 860 l 76 840 l 75 861 q 114 951 75 915 q 217 986 153 986 q 322 951 283 986 q 361 861 361 917 q 342 799 361 821 q 281 768 322 776 z "},"⁄":{"ha":117,"x_min":-236,"x_max":367,"o":"m 367 931 l -164 -28 l -236 17 l 292 972 l 367 931 z "},"½":{"ha":2081,"x_min":35,"x_max":2025,"o":"m 874 528 l 874 333 l 35 333 l 35 528 l 346 528 l 346 704 l 35 704 l 35 892 l 638 892 l 638 528 l 874 528 m 1379 931 l 849 -28 l 776 17 l 1304 972 l 1379 931 m 1218 179 q 1586 235 1464 213 q 1750 277 1708 258 q 1792 321 1792 296 q 1754 357 1792 346 q 1622 368 1717 368 q 1486 352 1533 368 q 1426 311 1439 336 l 1185 311 q 1231 445 1185 385 q 1377 542 1278 506 q 1628 578 1476 578 q 1919 534 1814 578 q 2025 389 2025 490 q 1990 292 2025 328 q 1888 235 1956 256 q 1707 201 1821 215 l 1518 179 l 2010 193 l 2010 0 l 1218 0 l 1218 179 z "},"↉":{"ha":2065,"x_min":49,"x_max":2017,"o":"m 500 915 q 838 838 724 915 q 951 610 951 761 q 838 382 951 458 q 500 306 724 306 q 163 382 276 306 q 49 610 49 458 q 163 838 49 761 q 500 915 276 915 m 500 510 q 627 534 586 510 q 668 610 668 558 q 627 683 668 660 q 500 707 586 707 q 369 683 413 707 q 325 610 325 660 q 368 534 325 558 q 500 510 411 510 m 1367 931 l 836 -28 l 764 17 l 1292 972 l 1367 931 m 1757 265 q 1902 255 1850 263 q 1985 223 1954 247 q 2017 147 2017 199 q 1909 15 2017 57 q 1593 -28 1801 -28 q 1274 28 1382 -28 q 1165 203 1165 85 l 1364 203 q 1420 167 1365 176 q 1589 157 1475 157 q 1723 160 1679 157 q 1786 171 1767 163 q 1806 199 1806 179 q 1785 225 1806 217 q 1720 235 1764 233 q 1589 238 1676 238 l 1400 238 l 1400 293 l 1589 293 q 1752 303 1710 293 q 1794 336 1794 313 q 1753 365 1794 357 q 1589 374 1711 374 q 1428 363 1488 374 q 1365 335 1368 351 l 1168 335 q 1284 518 1168 458 q 1583 578 1400 578 q 2001 406 2001 578 q 1936 308 2001 343 q 1757 265 1871 274 z "},"⅓":{"ha":2078,"x_min":35,"x_max":2029,"o":"m 874 528 l 874 333 l 35 333 l 35 528 l 346 528 l 346 704 l 35 704 l 35 892 l 638 892 l 638 528 l 874 528 m 1379 931 l 849 -28 l 776 17 l 1304 972 l 1379 931 m 1769 265 q 1915 255 1863 263 q 1998 223 1967 247 q 2029 147 2029 199 q 1922 15 2029 57 q 1606 -28 1814 -28 q 1286 28 1394 -28 q 1178 203 1178 85 l 1376 203 q 1433 167 1378 176 q 1601 157 1488 157 q 1735 160 1692 157 q 1799 171 1779 163 q 1818 199 1818 179 q 1797 225 1818 217 q 1733 235 1776 233 q 1601 238 1689 238 l 1413 238 l 1413 293 l 1601 293 q 1765 303 1722 293 q 1807 336 1807 313 q 1765 365 1807 357 q 1601 374 1724 374 q 1440 363 1500 374 q 1378 335 1381 351 l 1181 335 q 1297 518 1181 458 q 1596 578 1413 578 q 2014 406 2014 578 q 1949 308 2014 343 q 1769 265 1883 274 z "},"⅔":{"ha":2114,"x_min":56,"x_max":2065,"o":"m 89 513 q 457 569 335 546 q 621 610 579 592 q 663 654 663 629 q 625 690 663 679 q 493 701 588 701 q 357 685 404 701 q 297 644 310 669 l 56 644 q 102 778 56 718 q 248 875 149 839 q 499 911 347 911 q 790 867 685 911 q 896 722 896 824 q 861 625 896 661 q 759 569 826 589 q 578 535 692 549 l 389 513 l 881 526 l 881 333 l 89 333 l 89 513 m 1415 931 l 885 -28 l 813 17 l 1340 972 l 1415 931 m 1806 265 q 1951 255 1899 263 q 2034 223 2003 247 q 2065 147 2065 199 q 1958 15 2065 57 q 1642 -28 1850 -28 q 1322 28 1431 -28 q 1214 203 1214 85 l 1413 203 q 1469 167 1414 176 q 1638 157 1524 157 q 1772 160 1728 157 q 1835 171 1815 163 q 1854 199 1854 179 q 1833 225 1854 217 q 1769 235 1813 233 q 1638 238 1725 238 l 1449 238 l 1449 293 l 1638 293 q 1801 303 1758 293 q 1843 336 1843 313 q 1801 365 1843 357 q 1638 374 1760 374 q 1476 363 1536 374 q 1414 335 1417 351 l 1217 335 q 1333 518 1217 458 q 1632 578 1449 578 q 2050 406 2050 578 q 1985 308 2050 343 q 1806 265 1919 274 z "},"¼":{"ha":1981,"x_min":35,"x_max":1939,"o":"m 874 528 l 874 333 l 35 333 l 35 528 l 346 528 l 346 704 l 35 704 l 35 892 l 638 892 l 638 528 l 874 528 m 1379 931 l 849 -28 l 776 17 l 1304 972 l 1379 931 m 1939 88 l 1829 88 l 1829 0 l 1569 0 l 1569 88 l 1115 88 l 1115 271 l 1586 557 l 1829 557 l 1829 240 l 1939 240 l 1939 88 m 1583 392 l 1371 222 l 1583 222 l 1583 392 z "},"¾":{"ha":1972,"x_min":49,"x_max":1931,"o":"m 640 599 q 785 588 733 596 q 869 556 838 581 q 900 481 900 532 q 792 348 900 390 q 476 306 685 306 q 157 362 265 306 q 49 536 49 418 l 247 536 q 303 500 249 510 q 472 490 358 490 q 606 493 563 490 q 669 504 650 496 q 689 532 689 513 q 668 558 689 550 q 603 569 647 567 q 472 571 560 571 l 283 571 l 283 626 l 472 626 q 635 636 593 626 q 678 669 678 646 q 636 699 678 690 q 472 707 594 707 q 311 696 371 707 q 249 668 251 685 l 51 668 q 167 851 51 792 q 467 911 283 911 q 885 739 885 911 q 819 642 885 676 q 640 599 754 607 m 1371 931 l 840 -28 l 768 17 l 1296 972 l 1371 931 m 1931 88 l 1821 88 l 1821 0 l 1561 0 l 1561 88 l 1107 88 l 1107 271 l 1578 557 l 1821 557 l 1821 240 l 1931 240 l 1931 88 m 1575 392 l 1363 222 l 1575 222 l 1575 392 z "},"⅕":{"ha":2067,"x_min":35,"x_max":1997,"o":"m 874 528 l 874 333 l 35 333 l 35 528 l 346 528 l 346 704 l 35 704 l 35 892 l 638 892 l 638 528 l 874 528 m 1379 931 l 849 -28 l 776 17 l 1304 972 l 1379 931 m 1719 328 q 1922 288 1847 328 q 1997 160 1997 247 q 1905 16 1997 60 q 1607 -28 1813 -28 q 1314 26 1422 -28 q 1206 176 1206 79 l 1408 176 q 1467 150 1411 160 q 1621 140 1522 140 q 1747 149 1710 140 q 1783 183 1783 157 q 1749 215 1783 208 q 1621 221 1715 221 l 1406 219 l 1240 267 l 1260 558 l 1932 558 l 1932 379 l 1425 379 l 1415 269 q 1544 315 1471 301 q 1719 328 1618 328 z "},"⅖":{"ha":2103,"x_min":56,"x_max":2033,"o":"m 89 513 q 457 569 335 546 q 621 610 579 592 q 663 654 663 629 q 625 690 663 679 q 493 701 588 701 q 357 685 404 701 q 297 644 310 669 l 56 644 q 102 778 56 718 q 248 875 149 839 q 499 911 347 911 q 790 867 685 911 q 896 722 896 824 q 861 625 896 661 q 759 569 826 589 q 578 535 692 549 l 389 513 l 881 526 l 881 333 l 89 333 l 89 513 m 1415 931 l 885 -28 l 813 17 l 1340 972 l 1415 931 m 1756 328 q 1958 288 1883 328 q 2033 160 2033 247 q 1941 16 2033 60 q 1643 -28 1849 -28 q 1350 26 1458 -28 q 1242 176 1242 79 l 1444 176 q 1503 150 1447 160 q 1657 140 1558 140 q 1783 149 1746 140 q 1819 183 1819 157 q 1785 215 1819 208 q 1657 221 1751 221 l 1442 219 l 1276 267 l 1296 558 l 1968 558 l 1968 379 l 1461 379 l 1451 269 q 1581 315 1507 301 q 1756 328 1654 328 z "},"⅗":{"ha":2058,"x_min":49,"x_max":1989,"o":"m 640 599 q 785 588 733 596 q 869 556 838 581 q 900 481 900 532 q 792 348 900 390 q 476 306 685 306 q 157 362 265 306 q 49 536 49 418 l 247 536 q 303 500 249 510 q 472 490 358 490 q 606 493 563 490 q 669 504 650 496 q 689 532 689 513 q 668 558 689 550 q 603 569 647 567 q 472 571 560 571 l 283 571 l 283 626 l 472 626 q 635 636 593 626 q 678 669 678 646 q 636 699 678 690 q 472 707 594 707 q 311 696 371 707 q 249 668 251 685 l 51 668 q 167 851 51 792 q 467 911 283 911 q 885 739 885 911 q 819 642 885 676 q 640 599 754 607 m 1371 931 l 840 -28 l 768 17 l 1296 972 l 1371 931 m 1711 328 q 1914 288 1839 328 q 1989 160 1989 247 q 1897 16 1989 60 q 1599 -28 1804 -28 q 1306 26 1414 -28 q 1197 176 1197 79 l 1400 176 q 1458 150 1403 160 q 1613 140 1514 140 q 1738 149 1701 140 q 1775 183 1775 157 q 1741 215 1775 208 q 1613 221 1707 221 l 1397 219 l 1232 267 l 1251 558 l 1924 558 l 1924 379 l 1417 379 l 1407 269 q 1536 315 1463 301 q 1711 328 1610 328 z "},"⅘":{"ha":2072,"x_min":69,"x_max":2003,"o":"m 893 421 l 783 421 l 783 333 l 524 333 l 524 421 l 69 421 l 69 604 l 540 890 l 783 890 l 783 574 l 893 574 l 893 421 m 538 725 l 325 556 l 538 556 l 538 725 m 1385 931 l 854 -28 l 782 17 l 1310 972 l 1385 931 m 1725 328 q 1928 288 1853 328 q 2003 160 2003 247 q 1910 16 2003 60 q 1613 -28 1818 -28 q 1319 26 1428 -28 q 1211 176 1211 79 l 1414 176 q 1472 150 1417 160 q 1626 140 1528 140 q 1752 149 1715 140 q 1789 183 1789 157 q 1755 215 1789 208 q 1626 221 1721 221 l 1411 219 l 1246 267 l 1265 558 l 1938 558 l 1938 379 l 1431 379 l 1421 269 q 1550 315 1476 301 q 1725 328 1624 328 z "},"⅙":{"ha":1993,"x_min":35,"x_max":1944,"o":"m 874 528 l 874 333 l 35 333 l 35 528 l 346 528 l 346 704 l 35 704 l 35 892 l 638 892 l 638 528 l 874 528 m 1379 931 l 849 -28 l 776 17 l 1304 972 l 1379 931 m 1622 393 q 1864 346 1783 393 q 1944 200 1944 299 q 1851 30 1944 88 q 1557 -28 1757 -28 q 1213 24 1331 -28 q 1094 176 1094 76 q 1110 250 1094 214 q 1174 329 1125 286 q 1451 557 1215 367 l 1761 557 l 1474 360 q 1622 393 1550 393 m 1533 156 q 1694 167 1649 156 q 1739 204 1739 179 q 1694 242 1739 231 q 1533 254 1650 254 q 1357 242 1411 254 q 1303 204 1303 231 q 1357 167 1303 179 q 1533 156 1411 156 z "},"⅚":{"ha":1918,"x_min":76,"x_max":1869,"o":"m 590 661 q 793 621 718 661 q 868 493 868 581 q 776 349 868 393 q 478 306 683 306 q 185 359 293 306 q 76 510 76 413 l 279 510 q 338 483 282 493 q 492 474 393 474 q 617 482 581 474 q 654 517 654 490 q 620 548 654 542 q 492 554 586 554 l 276 553 l 111 600 l 131 892 l 803 892 l 803 713 l 296 713 l 286 603 q 415 648 342 635 q 590 661 489 661 m 1304 931 l 774 -28 l 701 17 l 1229 972 l 1304 931 m 1547 393 q 1789 346 1708 393 q 1869 200 1869 299 q 1776 30 1869 88 q 1482 -28 1682 -28 q 1138 24 1256 -28 q 1019 176 1019 76 q 1035 250 1019 214 q 1099 329 1050 286 q 1376 557 1140 367 l 1686 557 l 1399 360 q 1547 393 1475 393 m 1458 156 q 1619 167 1574 156 q 1664 204 1664 179 q 1619 242 1664 231 q 1458 254 1575 254 q 1282 242 1336 254 q 1228 204 1228 231 q 1282 167 1228 179 q 1458 156 1336 156 z "},"⅐":{"ha":2138,"x_min":35,"x_max":2096,"o":"m 874 528 l 874 333 l 35 333 l 35 528 l 346 528 l 346 704 l 35 704 l 35 892 l 638 892 l 638 528 l 874 528 m 1379 931 l 849 -28 l 776 17 l 1304 972 l 1379 931 m 2096 557 l 2096 344 l 1792 0 l 1444 0 l 1772 343 l 1268 343 l 1268 557 l 2096 557 z "},"⅛":{"ha":2057,"x_min":35,"x_max":2008,"o":"m 874 528 l 874 333 l 35 333 l 35 528 l 346 528 l 346 704 l 35 704 l 35 892 l 638 892 l 638 528 l 874 528 m 1379 931 l 849 -28 l 776 17 l 1304 972 l 1379 931 m 1797 281 q 1949 244 1889 278 q 2008 144 2008 210 q 1911 19 2008 63 q 1593 -25 1814 -25 q 1275 19 1372 -25 q 1178 144 1178 63 q 1235 243 1178 210 q 1376 281 1293 276 q 1251 324 1300 290 q 1201 418 1201 357 q 1293 540 1201 503 q 1593 578 1385 578 q 1893 540 1801 578 q 1985 418 1985 503 q 1933 324 1985 357 q 1797 281 1882 290 m 1593 397 q 1466 393 1510 397 q 1408 381 1422 389 q 1393 360 1393 374 q 1433 328 1393 339 q 1593 317 1474 317 q 1758 328 1714 317 q 1801 360 1801 339 q 1759 388 1801 379 q 1593 397 1717 397 m 1593 157 q 1779 167 1731 157 q 1828 197 1828 176 q 1780 228 1828 219 q 1593 238 1732 238 q 1450 233 1499 238 q 1384 221 1401 229 q 1367 197 1367 213 q 1384 174 1367 183 q 1450 161 1401 165 q 1593 157 1499 157 z "},"⅜":{"ha":2049,"x_min":49,"x_max":2000,"o":"m 640 599 q 785 588 733 596 q 869 556 838 581 q 900 481 900 532 q 792 348 900 390 q 476 306 685 306 q 157 362 265 306 q 49 536 49 418 l 247 536 q 303 500 249 510 q 472 490 358 490 q 606 493 563 490 q 669 504 650 496 q 689 532 689 513 q 668 558 689 550 q 603 569 647 567 q 472 571 560 571 l 283 571 l 283 626 l 472 626 q 635 636 593 626 q 678 669 678 646 q 636 699 678 690 q 472 707 594 707 q 311 696 371 707 q 249 668 251 685 l 51 668 q 167 851 51 792 q 467 911 283 911 q 885 739 885 911 q 819 642 885 676 q 640 599 754 607 m 1371 931 l 840 -28 l 768 17 l 1296 972 l 1371 931 m 1789 281 q 1940 244 1881 278 q 2000 144 2000 210 q 1903 19 2000 63 q 1585 -25 1806 -25 q 1267 19 1364 -25 q 1169 144 1169 63 q 1227 243 1169 210 q 1368 281 1285 276 q 1242 324 1292 290 q 1193 418 1193 357 q 1285 540 1193 503 q 1585 578 1376 578 q 1885 540 1793 578 q 1976 418 1976 503 q 1925 324 1976 357 q 1789 281 1874 290 m 1585 397 q 1458 393 1501 397 q 1399 381 1414 389 q 1385 360 1385 374 q 1425 328 1385 339 q 1585 317 1465 317 q 1749 328 1706 317 q 1793 360 1793 339 q 1751 388 1793 379 q 1585 397 1708 397 m 1585 157 q 1771 167 1722 157 q 1819 197 1819 176 q 1772 228 1819 219 q 1585 238 1724 238 q 1442 233 1490 238 q 1376 221 1393 229 q 1358 197 1358 213 q 1376 174 1358 183 q 1442 161 1393 165 q 1585 157 1490 157 z "},"⅝":{"ha":1982,"x_min":76,"x_max":1933,"o":"m 590 661 q 793 621 718 661 q 868 493 868 581 q 776 349 868 393 q 478 306 683 306 q 185 359 293 306 q 76 510 76 413 l 279 510 q 338 483 282 493 q 492 474 393 474 q 617 482 581 474 q 654 517 654 490 q 620 548 654 542 q 492 554 586 554 l 276 553 l 111 600 l 131 892 l 803 892 l 803 713 l 296 713 l 286 603 q 415 648 342 635 q 590 661 489 661 m 1304 931 l 774 -28 l 701 17 l 1229 972 l 1304 931 m 1722 281 q 1874 244 1814 278 q 1933 144 1933 210 q 1836 19 1933 63 q 1518 -25 1739 -25 q 1200 19 1297 -25 q 1103 144 1103 63 q 1160 243 1103 210 q 1301 281 1218 276 q 1176 324 1225 290 q 1126 418 1126 357 q 1218 540 1126 503 q 1518 578 1310 578 q 1818 540 1726 578 q 1910 418 1910 503 q 1858 324 1910 357 q 1722 281 1807 290 m 1518 397 q 1391 393 1435 397 q 1333 381 1347 389 q 1318 360 1318 374 q 1358 328 1318 339 q 1518 317 1399 317 q 1683 328 1639 317 q 1726 360 1726 339 q 1684 388 1726 379 q 1518 397 1642 397 m 1518 157 q 1704 167 1656 157 q 1753 197 1753 176 q 1705 228 1753 219 q 1518 238 1657 238 q 1375 233 1424 238 q 1309 221 1326 229 q 1292 197 1292 213 q 1309 174 1292 183 q 1375 161 1326 165 q 1518 157 1424 157 z "},"⅞":{"ha":1913,"x_min":42,"x_max":1865,"o":"m 869 890 l 869 678 l 565 333 l 218 333 l 546 676 l 42 676 l 42 890 l 869 890 m 1236 931 l 706 -28 l 633 17 l 1161 972 l 1236 931 m 1654 281 q 1806 244 1746 278 q 1865 144 1865 210 q 1768 19 1865 63 q 1450 -25 1671 -25 q 1132 19 1229 -25 q 1035 144 1035 63 q 1092 243 1035 210 q 1233 281 1150 276 q 1108 324 1157 290 q 1058 418 1058 357 q 1150 540 1058 503 q 1450 578 1242 578 q 1750 540 1658 578 q 1842 418 1842 503 q 1790 324 1842 357 q 1654 281 1739 290 m 1450 397 q 1323 393 1367 397 q 1265 381 1279 389 q 1250 360 1250 374 q 1290 328 1250 339 q 1450 317 1331 317 q 1615 328 1571 317 q 1658 360 1658 339 q 1616 388 1658 379 q 1450 397 1574 397 m 1450 157 q 1636 167 1588 157 q 1685 197 1685 176 q 1637 228 1685 219 q 1450 238 1589 238 q 1307 233 1356 238 q 1241 221 1258 229 q 1224 197 1224 213 q 1241 174 1224 183 q 1307 161 1258 165 q 1450 157 1356 157 z "},"⅑":{"ha":2076,"x_min":35,"x_max":2028,"o":"m 874 528 l 874 333 l 35 333 l 35 528 l 346 528 l 346 704 l 35 704 l 35 892 l 638 892 l 638 528 l 874 528 m 1379 931 l 849 -28 l 776 17 l 1304 972 l 1379 931 m 1565 576 q 1910 525 1792 576 q 2028 372 2028 474 q 2013 299 2028 335 q 1949 219 1997 263 q 1671 0 1907 182 l 1361 0 l 1640 186 q 1500 156 1569 156 q 1258 203 1339 156 q 1178 349 1178 250 q 1272 519 1178 461 q 1565 576 1365 576 m 1589 294 q 1765 306 1711 294 q 1819 346 1819 318 q 1765 381 1819 369 q 1589 393 1710 393 q 1428 381 1474 393 q 1383 346 1383 369 q 1427 306 1383 318 q 1589 294 1471 294 z "},"⅒":{"ha":3176,"x_min":35,"x_max":3038,"o":"m 874 528 l 874 333 l 35 333 l 35 528 l 346 528 l 346 704 l 35 704 l 35 892 l 638 892 l 638 528 l 874 528 m 1379 931 l 849 -28 l 776 17 l 1304 972 l 1379 931 m 2100 194 l 2100 0 l 1261 0 l 1261 194 l 1572 194 l 1572 371 l 1261 371 l 1261 558 l 1864 558 l 1864 194 l 2100 194 m 2586 582 q 2924 505 2810 582 q 3038 276 3038 428 q 2924 49 3038 125 q 2586 -28 2810 -28 q 2249 49 2363 -28 q 2135 276 2135 125 q 2249 505 2135 428 q 2586 582 2363 582 m 2586 176 q 2713 201 2672 176 q 2754 276 2754 225 q 2713 350 2754 326 q 2586 374 2672 374 q 2455 350 2499 374 q 2411 276 2411 326 q 2454 201 2411 225 q 2586 176 2497 176 z "},".":{"ha":492,"x_min":69,"x_max":422,"o":"m 422 0 l 69 0 l 69 210 l 422 210 l 422 0 z "},",":{"ha":421,"x_min":35,"x_max":386,"o":"m 54 -104 q 103 -70 82 -93 q 129 -15 125 -47 l 35 0 l 35 213 l 386 213 l 386 83 q 310 -104 386 -36 q 74 -190 235 -172 l 54 -104 z "},":":{"ha":492,"x_min":69,"x_max":422,"o":"m 422 0 l 69 0 l 69 210 l 422 210 l 422 0 m 422 503 l 69 503 l 69 713 l 422 713 l 422 503 z "},";":{"ha":494,"x_min":69,"x_max":425,"o":"m 422 456 l 69 456 l 69 665 l 422 665 l 422 456 m 93 -49 q 142 -15 121 -37 q 168 40 164 8 l 74 56 l 74 268 l 425 268 l 425 139 q 349 -49 425 19 q 113 -135 274 -117 l 93 -49 z "},"…":{"ha":1336,"x_min":69,"x_max":1267,"o":"m 1267 0 l 914 0 l 914 210 l 1267 210 l 1267 0 m 422 0 l 69 0 l 69 210 l 422 210 l 422 0 m 844 0 l 492 0 l 492 210 l 844 210 l 844 0 z "},"!":{"ha":492,"x_min":69,"x_max":422,"o":"m 419 903 l 419 283 l 72 283 l 72 903 l 419 903 m 422 0 l 69 0 l 69 210 l 422 210 l 422 0 z "},"¡":{"ha":492,"x_min":69,"x_max":422,"o":"m 69 679 l 69 889 l 422 889 l 422 679 l 69 679 m 72 606 l 419 606 l 419 -14 l 72 -14 l 72 606 z "},"?":{"ha":1172,"x_min":49,"x_max":1124,"o":"m 579 917 q 1000 825 876 917 q 1124 578 1124 733 q 1009 355 1124 431 q 710 279 894 279 l 390 279 l 390 488 l 579 488 q 731 505 686 488 q 776 564 776 522 q 732 622 776 606 q 579 639 688 639 q 429 621 471 639 q 376 575 388 603 l 50 575 q 49 593 49 581 q 98 733 49 658 q 266 862 147 807 q 579 917 385 917 m 388 210 l 740 210 l 740 0 l 388 0 l 388 210 z "},"¿":{"ha":1172,"x_min":49,"x_max":1124,"o":"m 785 604 l 432 604 l 432 814 l 785 814 l 785 604 m 1124 221 q 1074 81 1124 156 q 906 -48 1025 7 q 592 -103 786 -103 q 172 -11 296 -103 q 49 236 49 81 q 163 459 49 383 q 463 535 278 535 l 782 535 l 782 326 l 592 326 q 440 309 485 326 q 396 250 396 292 q 440 192 396 208 q 592 175 485 175 q 743 193 701 175 q 796 239 785 211 l 1122 239 l 1124 221 z "},"·":{"ha":492,"x_min":69,"x_max":422,"o":"m 422 274 l 69 274 l 69 483 l 422 483 l 422 274 z "},"•":{"ha":664,"x_min":125,"x_max":539,"o":"m 539 571 l 539 157 l 125 157 l 125 571 l 539 571 z "},"*":{"ha":925,"x_min":28,"x_max":897,"o":"m 625 619 l 796 411 l 608 275 l 456 514 l 304 276 l 118 411 l 293 624 l 28 693 l 99 913 l 356 813 l 338 1085 l 569 1085 l 550 800 l 826 910 l 897 689 l 625 619 z "},"#":{"ha":1933,"x_min":83,"x_max":1850,"o":"m 1517 526 l 1517 363 l 1850 363 l 1850 154 l 1517 154 l 1517 0 l 1169 0 l 1169 154 l 764 154 l 764 0 l 417 0 l 417 154 l 83 154 l 83 363 l 417 363 l 417 526 l 83 526 l 83 735 l 417 735 l 417 889 l 764 889 l 764 735 l 1169 735 l 1169 889 l 1517 889 l 1517 735 l 1850 735 l 1850 526 l 1517 526 m 1169 526 l 764 526 l 764 363 l 1169 363 l 1169 526 z "},"/":{"ha":864,"x_min":69,"x_max":794,"o":"m 794 1050 l 318 -258 l 69 -168 l 546 1140 l 794 1050 z "},"\\":{"ha":864,"x_min":69,"x_max":794,"o":"m 794 -168 l 546 -258 l 69 1050 l 318 1140 l 794 -168 z "},"(":{"ha":563,"x_min":83,"x_max":479,"o":"m 374 -240 q 168 29 253 -137 q 83 397 83 196 q 168 761 83 599 q 374 1021 253 924 l 479 915 q 347 702 401 836 q 292 397 292 568 q 347 76 292 213 q 479 -135 401 -61 l 374 -240 z "},")":{"ha":563,"x_min":83,"x_max":479,"o":"m 83 -135 q 216 76 161 -61 q 271 397 271 213 q 216 702 271 568 q 83 915 161 836 l 189 1021 q 394 761 310 924 q 479 397 479 599 q 394 29 479 196 q 189 -240 310 -137 l 83 -135 z "},"{":{"ha":865,"x_min":42,"x_max":740,"o":"m 740 903 l 428 903 q 453 819 428 882 q 490 716 476 761 q 503 626 503 671 q 427 502 503 551 q 225 432 351 453 q 427 362 351 411 q 503 238 503 313 q 490 149 503 193 q 453 44 476 104 q 428 -39 428 -18 l 740 -39 l 740 -247 l 181 -247 q 176 -193 176 -221 q 194 -68 176 -132 q 243 85 211 -4 q 274 178 264 143 q 285 238 285 213 q 229 332 285 301 q 42 363 174 363 l 42 501 q 229 532 174 501 q 285 626 285 563 q 274 686 285 651 q 243 779 264 721 q 194 932 211 868 q 176 1057 176 996 q 181 1111 176 1085 l 740 1111 l 740 903 z "},"}":{"ha":865,"x_min":125,"x_max":824,"o":"m 581 626 q 636 532 581 563 q 824 501 692 501 l 824 363 q 636 332 692 363 q 581 238 581 301 q 591 178 581 213 q 622 85 601 143 q 672 -68 654 -4 q 689 -193 689 -132 q 685 -247 689 -221 l 125 -247 l 125 -39 l 438 -39 q 413 44 438 -18 q 376 149 389 104 q 363 238 363 193 q 438 362 363 313 q 640 432 514 411 q 438 502 514 453 q 363 626 363 551 q 376 716 363 671 q 413 819 389 761 q 438 903 438 882 l 125 903 l 125 1111 l 685 1111 q 689 1057 689 1085 q 672 932 689 996 q 622 779 654 868 q 591 686 601 721 q 581 626 581 651 z "},"[":{"ha":764,"x_min":125,"x_max":681,"o":"m 681 -274 l 125 -274 l 125 1111 l 681 1111 l 681 903 l 333 903 l 333 -65 l 681 -65 l 681 -274 z "},"]":{"ha":764,"x_min":83,"x_max":639,"o":"m 431 -65 l 431 903 l 83 903 l 83 1111 l 639 1111 l 639 -274 l 83 -274 l 83 -65 l 431 -65 z "},"-":{"ha":819,"x_min":111,"x_max":708,"o":"m 708 482 l 708 274 l 111 274 l 111 482 l 708 482 z "},"­":{"ha":833,"x_min":111,"x_max":708,"o":"m 708 482 l 708 274 l 111 274 l 111 482 l 708 482 z "},"–":{"ha":972,"x_min":111,"x_max":861,"o":"m 861 482 l 861 274 l 111 274 l 111 482 l 861 482 z "},"—":{"ha":1306,"x_min":83,"x_max":1222,"o":"m 1222 482 l 1222 274 l 83 274 l 83 482 l 1222 482 z "},"_":{"ha":1361,"x_min":69,"x_max":1292,"o":"m 1292 -69 l 1292 -278 l 69 -278 l 69 -69 l 1292 -69 z "},"‚":{"ha":421,"x_min":35,"x_max":386,"o":"m 54 -104 q 103 -70 82 -93 q 129 -15 125 -47 l 35 0 l 35 213 l 386 213 l 386 83 q 310 -104 386 -36 q 74 -190 235 -172 l 54 -104 z "},"„":{"ha":421,"x_min":35,"x_max":386,"o":"m 54 -104 q 103 -70 82 -93 q 129 -15 125 -47 l 35 0 l 35 213 l 386 213 l 386 83 q 310 -104 386 -36 q 74 -190 235 -172 l 54 -104 z "},"“":{"ha":842,"x_min":35,"x_max":807,"o":"m 367 860 q 317 826 339 849 q 292 771 296 803 l 386 756 l 386 543 l 35 543 l 35 672 q 110 860 35 792 q 347 946 186 928 l 367 860 m 788 860 q 738 826 760 849 q 714 771 717 803 l 807 756 l 807 543 l 456 543 l 456 672 q 531 859 456 790 q 769 946 607 928 l 788 860 z "},"”":{"ha":842,"x_min":35,"x_max":807,"o":"m 475 600 q 524 634 503 611 q 550 689 546 657 l 456 704 l 456 917 l 807 917 l 807 788 q 731 600 807 668 q 494 514 656 532 l 475 600 m 54 600 q 103 634 82 611 q 129 689 125 657 l 35 704 l 35 917 l 386 917 l 386 788 q 310 600 386 668 q 74 514 235 532 l 54 600 z "},"‘":{"ha":421,"x_min":35,"x_max":386,"o":"m 367 860 q 317 826 339 849 q 292 771 296 803 l 386 756 l 386 543 l 35 543 l 35 672 q 110 860 35 792 q 347 946 186 928 l 367 860 z "},"’":{"ha":421,"x_min":35,"x_max":386,"o":"m 54 601 q 103 635 82 613 q 129 690 125 658 l 35 706 l 35 918 l 386 918 l 386 789 q 310 601 386 669 q 74 515 235 533 l 54 601 z "},"«":{"ha":1075,"x_min":83,"x_max":964,"o":"m 363 388 l 571 164 l 417 26 l 83 388 l 417 750 l 568 610 l 363 388 m 964 200 l 811 63 l 506 394 l 811 726 l 961 588 l 785 394 l 964 200 z "},"»":{"ha":1075,"x_min":111,"x_max":992,"o":"m 992 388 l 657 26 l 504 164 l 713 388 l 507 610 l 657 750 l 992 388 m 568 394 l 264 63 l 111 200 l 290 394 l 113 588 l 264 726 l 568 394 z "},"‹":{"ha":682,"x_min":83,"x_max":571,"o":"m 571 164 l 417 26 l 83 388 l 417 750 l 568 610 l 363 388 l 571 164 z "},"›":{"ha":682,"x_min":111,"x_max":599,"o":"m 599 388 l 264 26 l 111 164 l 318 388 l 113 610 l 264 750 l 599 388 z "},"\"":{"ha":842,"x_min":35,"x_max":807,"o":"m 475 600 q 524 634 503 611 q 550 689 546 657 l 456 704 l 456 917 l 807 917 l 807 788 q 731 600 807 668 q 494 514 656 532 l 475 600 m 54 600 q 103 634 82 611 q 129 689 125 657 l 35 704 l 35 917 l 386 917 l 386 788 q 310 600 386 668 q 74 514 235 532 l 54 600 z "},"'":{"ha":417,"x_min":35,"x_max":382,"o":"m 125 606 l 35 768 l 35 917 l 382 917 l 382 768 l 292 606 l 125 606 z "},"¢":{"ha":1381,"x_min":49,"x_max":1332,"o":"m 1332 296 q 1185 60 1332 142 q 722 -21 1038 -21 l 689 -21 l 668 -140 l 586 -125 l 606 -18 q 188 79 328 -6 q 49 339 49 164 q 218 616 49 531 q 722 701 388 701 l 732 701 l 756 838 l 838 822 l 817 700 q 1331 386 1326 676 l 1025 386 q 940 451 1004 425 q 778 482 876 476 l 728 197 q 925 226 847 199 q 1026 296 1003 253 l 1332 296 m 389 339 q 454 240 389 272 q 643 199 519 207 l 693 483 q 389 339 389 476 z "},"¤":{"ha":1286,"x_min":42,"x_max":1244,"o":"m 1244 421 q 1165 219 1244 299 q 933 103 1086 139 l 1010 -6 l 931 -61 l 828 85 q 646 75 750 75 q 467 85 544 75 l 365 -61 l 285 -6 l 361 103 q 123 217 204 138 q 42 421 42 297 q 124 625 42 544 q 363 742 206 706 l 285 853 l 365 908 l 469 760 q 646 769 546 769 q 825 760 749 769 l 931 908 l 1010 853 l 931 740 q 1165 624 1085 704 q 1244 421 1244 543 m 382 421 q 449 311 382 353 q 646 269 515 269 q 839 311 774 269 q 904 421 904 353 q 839 532 904 489 q 646 575 774 575 q 449 532 517 575 q 382 421 382 489 z "},"$":{"ha":1183,"x_min":56,"x_max":1128,"o":"m 697 471 q 924 461 836 471 q 1069 413 1011 451 q 1128 292 1128 374 q 990 123 1128 176 q 601 69 853 69 q 578 71 586 69 l 549 -97 l 460 -82 l 486 74 q 232 124 326 85 q 100 215 138 164 q 63 318 63 267 l 63 335 l 369 335 q 440 290 389 301 q 601 279 492 279 q 745 292 710 279 q 781 331 781 304 q 715 377 781 364 q 486 390 649 390 q 247 404 339 390 q 106 456 156 418 q 56 563 56 493 q 601 792 56 792 l 615 792 l 647 971 l 736 957 l 706 789 q 1004 702 904 772 q 1103 528 1104 632 l 804 528 q 747 572 789 561 q 601 583 706 583 q 447 572 492 583 q 403 529 403 560 q 426 494 403 507 q 511 476 449 482 q 697 471 574 471 z "},"€":{"ha":1953,"x_min":28,"x_max":1869,"o":"m 1224 475 l 28 475 l 113 556 l 253 556 q 1006 917 343 917 q 1601 849 1404 917 l 1358 610 q 1103 632 1258 632 q 669 556 786 632 l 1307 556 l 1224 475 m 1869 371 q 1103 -28 1846 -28 q 515 58 742 -28 q 249 325 289 143 l 28 325 l 113 392 l 1165 392 l 1082 325 l 646 325 q 804 262 694 281 q 1103 243 914 243 q 1508 371 1442 243 l 1869 371 z "},"ƒ":{"ha":1750,"x_min":42,"x_max":1708,"o":"m 1239 917 q 1597 825 1485 917 q 1708 561 1708 733 l 1403 561 q 1358 628 1397 604 q 1239 653 1318 653 q 1093 615 1139 653 q 1042 497 1047 578 l 1204 497 l 1204 407 l 1040 407 q 892 95 1031 204 q 522 -14 753 -14 q 262 31 371 -14 q 97 153 153 75 q 42 329 42 231 l 347 329 q 522 250 357 250 q 657 287 613 250 q 707 407 701 324 l 456 407 l 456 497 l 708 497 q 855 811 715 706 q 1239 917 994 917 z "},"£":{"ha":1517,"x_min":56,"x_max":1461,"o":"m 593 392 q 509 288 592 314 q 347 261 426 261 l 1394 261 l 1394 0 l 138 0 l 138 261 q 313 286 240 263 q 385 356 385 310 q 371 392 385 376 l 56 392 l 56 482 l 246 482 q 131 546 175 503 q 86 658 86 589 q 257 853 86 789 q 731 917 428 917 q 1106 877 940 917 q 1366 758 1271 838 q 1461 561 1461 678 l 1094 561 q 986 624 1088 599 q 751 649 885 649 q 502 631 582 649 q 422 557 422 613 q 481 482 422 515 l 1001 482 l 1001 392 l 593 392 z "},"¥":{"ha":1486,"x_min":7,"x_max":1479,"o":"m 931 243 l 1083 243 l 1083 153 l 403 153 l 403 243 l 556 243 l 7 889 l 417 889 l 744 476 l 1069 889 l 1479 889 l 931 243 m 403 90 l 1083 90 l 1083 0 l 403 0 l 403 90 z "},"+":{"ha":1083,"x_min":69,"x_max":1014,"o":"m 1014 271 l 674 271 l 674 83 l 410 83 l 410 271 l 69 271 l 69 479 l 410 479 l 410 667 l 674 667 l 674 479 l 1014 479 l 1014 271 z "},"−":{"ha":833,"x_min":69,"x_max":764,"o":"m 764 479 l 764 271 l 69 271 l 69 479 l 764 479 z "},"×":{"ha":988,"x_min":110,"x_max":876,"o":"m 640 347 l 876 111 l 729 -36 l 493 200 l 257 -36 l 110 111 l 346 347 l 110 583 l 257 731 l 493 494 l 729 731 l 876 583 l 640 347 z "},"÷":{"ha":889,"x_min":69,"x_max":819,"o":"m 819 465 l 819 257 l 69 257 l 69 465 l 268 465 l 268 593 l 621 593 l 621 465 l 819 465 m 268 51 l 621 51 l 621 -87 l 268 -87 l 268 51 z "},"=":{"ha":1167,"x_min":69,"x_max":1097,"o":"m 1097 667 l 1097 458 l 69 458 l 69 667 l 1097 667 m 1097 313 l 1097 104 l 69 104 l 69 313 l 1097 313 z "},"≠":{"ha":1167,"x_min":69,"x_max":1097,"o":"m 653 458 l 608 313 l 1097 313 l 1097 104 l 544 104 l 500 -40 l 411 -15 l 447 104 l 69 104 l 69 313 l 511 313 l 557 458 l 69 458 l 69 667 l 621 667 l 667 818 l 756 793 l 717 667 l 1097 667 l 1097 458 l 653 458 z "},">":{"ha":767,"x_min":111,"x_max":683,"o":"m 683 503 l 683 293 l 208 35 l 111 242 l 460 401 l 111 569 l 208 761 l 683 503 z "},"<":{"ha":739,"x_min":56,"x_max":628,"o":"m 279 401 l 628 242 l 531 35 l 56 293 l 56 503 l 531 761 l 628 569 l 279 401 z "},"≥":{"ha":767,"x_min":111,"x_max":683,"o":"m 683 544 l 683 335 l 181 146 l 111 353 l 454 443 l 111 542 l 181 733 l 683 544 m 139 76 l 681 76 l 681 -14 l 139 -14 l 139 76 z "},"≤":{"ha":767,"x_min":83,"x_max":656,"o":"m 313 443 l 656 353 l 586 146 l 83 335 l 83 544 l 586 733 l 656 542 l 313 443 m 86 76 l 628 76 l 628 -14 l 86 -14 l 86 76 z "},"±":{"ha":1083,"x_min":69,"x_max":1014,"o":"m 1014 521 l 1014 313 l 674 313 l 674 153 l 410 153 l 410 313 l 69 313 l 69 521 l 410 521 l 410 681 l 674 681 l 674 521 l 1014 521 m 69 76 l 1014 76 l 1014 -14 l 69 -14 l 69 76 z "},"≈":{"ha":1242,"x_min":69,"x_max":1172,"o":"m 1172 664 q 1138 526 1172 590 q 1033 423 1104 463 q 860 383 963 383 q 738 398 794 383 q 604 442 681 413 q 498 477 542 465 q 410 489 454 489 q 325 467 358 489 q 292 417 292 444 l 69 417 q 108 552 69 488 q 223 657 146 617 q 410 697 300 697 q 532 682 474 697 q 665 639 590 667 q 772 603 728 615 q 860 592 815 592 q 929 613 908 592 q 950 664 950 633 l 1172 664 m 1172 321 q 1138 190 1172 254 q 1032 83 1103 125 q 860 40 961 40 q 738 55 794 40 q 604 99 681 69 q 498 134 542 122 q 410 146 454 146 q 325 124 358 146 q 292 74 292 101 l 69 74 q 108 210 69 146 q 223 314 146 274 q 410 354 300 354 q 532 339 474 354 q 665 296 590 324 q 772 260 728 272 q 860 249 815 249 q 944 271 911 249 q 978 321 978 293 l 1172 321 z "},"~":{"ha":575,"x_min":97,"x_max":450,"o":"m 450 274 l 97 274 l 97 483 l 450 483 l 450 274 z "},"¬":{"ha":1396,"x_min":118,"x_max":1257,"o":"m 1257 222 l 993 222 l 993 403 l 118 403 l 118 611 l 1257 611 l 1257 222 z "},"^":{"ha":815,"x_min":28,"x_max":381,"o":"z "},"∅":{"ha":1481,"x_min":83,"x_max":1397,"o":"m 996 769 q 1299 657 1200 742 q 1397 422 1397 572 q 1238 147 1397 232 q 743 63 1078 63 q 590 67 661 63 l 497 -94 l 413 -46 l 485 78 q 183 189 282 106 q 83 422 83 272 q 245 699 83 613 q 743 785 407 785 q 890 781 822 785 l 979 935 l 1063 886 l 996 769 m 424 422 q 601 281 424 310 l 772 576 l 743 576 q 506 537 588 576 q 424 422 424 497 m 743 271 q 977 309 897 271 q 1057 422 1057 347 q 1012 515 1057 478 q 879 567 967 551 l 708 271 l 743 271 z "},"∞":{"ha":2250,"x_min":83,"x_max":2167,"o":"m 1706 701 q 1942 664 1838 701 q 2107 556 2047 626 q 2167 394 2167 486 q 2106 232 2167 301 q 1935 125 2046 163 q 1678 88 1824 88 q 1451 115 1547 88 q 1290 184 1354 143 q 1140 293 1225 225 q 980 185 1053 228 q 805 115 907 143 q 572 88 703 88 q 315 126 426 88 q 144 233 204 164 q 83 396 83 303 q 142 557 83 488 q 306 664 201 626 q 544 701 411 701 q 799 671 690 701 q 982 596 908 640 q 1144 482 1056 551 q 1297 599 1233 557 q 1462 671 1361 640 q 1706 701 1563 701 m 656 293 q 858 317 772 293 q 1015 386 944 342 q 844 465 936 438 q 628 493 753 493 q 489 472 547 493 q 431 396 431 451 q 500 315 431 338 q 656 293 569 293 m 1594 293 q 1750 315 1681 293 q 1819 394 1819 338 q 1761 472 1819 450 q 1622 493 1703 493 q 1435 465 1517 493 q 1272 388 1353 438 q 1419 317 1343 342 q 1594 293 1496 293 z "},"∫":{"ha":1043,"x_min":42,"x_max":1001,"o":"m 1001 1056 l 1001 792 l 814 792 q 722 764 756 792 q 689 667 689 736 l 689 83 q 619 -94 689 -36 q 439 -153 550 -153 l 42 -153 l 42 111 l 231 111 q 322 139 289 111 q 356 236 356 167 l 356 819 q 419 997 356 939 q 592 1056 482 1056 l 1001 1056 z "},"∏":{"ha":1639,"x_min":42,"x_max":1597,"o":"m 1597 625 l 1319 625 l 1319 0 l 986 0 l 986 625 l 653 625 l 653 0 l 319 0 l 319 625 l 42 625 l 42 889 l 1597 889 l 1597 625 z "},"∑":{"ha":1408,"x_min":117,"x_max":1283,"o":"m 1283 625 l 631 625 l 997 426 l 667 264 l 1283 264 l 1283 0 l 117 0 l 117 264 l 481 433 l 117 625 l 117 889 l 1283 889 l 1283 625 z "},"√":{"ha":1661,"x_min":7,"x_max":1633,"o":"m 1633 625 l 1210 625 l 783 0 l 469 0 l 7 681 l 374 681 l 633 250 l 1050 889 l 1050 889 l 1050 889 l 1633 889 l 1633 625 z "},"µ":{"ha":1476,"x_min":63,"x_max":1449,"o":"m 1324 347 q 1353 281 1324 297 q 1449 264 1383 264 l 1449 0 q 1103 54 1208 0 q 990 219 997 108 q 871 51 956 122 q 643 -21 786 -21 q 492 6 553 -21 q 396 90 431 33 l 396 -278 l 63 -278 l 63 681 l 396 681 l 396 421 q 465 249 396 296 q 660 201 535 201 q 858 244 775 201 q 990 336 942 288 l 990 681 l 1324 681 l 1324 347 z "},"∂":{"ha":1429,"x_min":49,"x_max":1346,"o":"m 356 979 q 951 881 729 979 q 1259 650 1172 783 q 1346 393 1346 517 q 1160 72 1346 165 q 692 -21 974 -21 q 343 22 488 -21 q 124 145 199 64 q 49 340 49 226 q 183 584 49 508 q 539 660 317 660 q 856 614 718 660 q 1060 486 994 568 q 850 697 1014 626 q 356 767 686 767 l 356 979 m 719 192 q 1082 331 1081 192 l 1082 333 q 963 426 1081 399 q 706 454 844 454 q 394 325 394 454 q 476 221 394 250 q 719 192 557 192 z "},"%":{"ha":1815,"x_min":56,"x_max":1760,"o":"m 1204 911 l 674 -47 l 601 -3 l 1129 953 l 1204 911 m 454 451 q 157 509 258 451 q 56 692 56 567 q 157 875 56 817 q 454 933 258 933 q 748 875 647 933 q 849 692 849 817 q 749 509 849 567 q 454 451 649 451 m 454 590 q 578 616 536 590 q 621 692 621 642 q 578 768 621 742 q 454 794 536 794 q 326 768 371 794 q 282 692 282 742 q 326 616 282 642 q 454 590 369 590 m 1365 -24 q 1068 34 1169 -24 q 967 217 967 92 q 1068 400 967 342 q 1365 458 1169 458 q 1660 400 1560 458 q 1760 217 1760 342 q 1660 34 1760 92 q 1365 -24 1560 -24 m 1365 115 q 1490 141 1447 115 q 1533 217 1533 167 q 1490 292 1533 265 q 1365 319 1447 319 q 1239 293 1283 319 q 1194 217 1194 267 q 1238 141 1194 167 q 1365 115 1281 115 z "},"‰":{"ha":2061,"x_min":56,"x_max":2006,"o":"m 1211 911 l 681 -47 l 608 -3 l 1136 953 l 1211 911 m 454 453 q 157 510 258 453 q 56 692 56 567 q 157 876 56 818 q 454 933 258 933 q 748 875 647 933 q 849 692 849 817 q 749 510 849 567 q 454 453 649 453 m 1611 424 q 1314 481 1415 424 q 1213 663 1213 538 q 1314 847 1213 789 q 1611 904 1415 904 q 1906 847 1806 904 q 2006 663 2006 789 q 1906 481 2006 538 q 1611 424 1806 424 m 454 592 q 578 617 536 592 q 621 692 621 642 q 578 768 621 742 q 454 794 536 794 q 326 768 371 794 q 282 692 282 742 q 454 592 282 592 m 1611 563 q 1736 588 1693 563 q 1779 663 1779 613 q 1737 739 1779 713 q 1611 765 1694 765 q 1485 739 1529 765 q 1440 663 1440 713 q 1611 563 1440 563 m 1308 -119 q 1011 -62 1113 -119 q 910 119 910 -6 q 1011 303 910 246 q 1308 361 1113 361 q 1603 303 1503 361 q 1703 119 1703 246 q 1603 -62 1703 -6 q 1308 -119 1503 -119 m 1308 19 q 1433 44 1390 19 q 1476 119 1476 69 q 1433 196 1476 169 q 1308 222 1390 222 q 1182 196 1226 222 q 1138 119 1138 169 q 1308 19 1138 19 z "},"↑":{"ha":1057,"x_min":167,"x_max":890,"o":"m 753 568 l 625 685 l 633 565 l 633 -112 l 425 -112 l 425 565 l 432 686 l 306 569 l 167 721 l 528 1054 l 890 721 l 753 568 z "},"↗":{"ha":1196,"x_min":139,"x_max":1057,"o":"m 853 374 l 846 547 l 765 457 l 286 -24 l 139 124 l 618 604 l 710 683 l 538 690 l 546 896 l 1038 876 l 1057 385 l 853 374 z "},"→":{"ha":1307,"x_min":56,"x_max":1224,"o":"m 1224 388 l 889 26 l 736 164 l 854 290 l 733 283 l 56 283 l 56 492 l 733 492 l 854 485 l 738 610 l 889 750 l 1224 388 z "},"↘":{"ha":1197,"x_min":139,"x_max":1058,"o":"m 1058 490 l 1039 -1 l 546 -21 l 535 185 l 708 192 l 618 271 l 139 750 l 286 897 l 765 418 l 846 328 l 853 499 l 1058 490 z "},"↓":{"ha":1057,"x_min":167,"x_max":890,"o":"m 890 150 l 528 -185 l 167 150 l 304 303 l 432 185 l 424 306 l 424 983 l 632 983 l 632 306 l 625 185 l 751 301 l 890 150 z "},"↙":{"ha":1197,"x_min":139,"x_max":1058,"o":"m 488 192 l 661 185 l 650 -21 l 158 -1 l 139 490 l 344 499 l 351 328 l 431 418 l 911 897 l 1058 750 l 578 271 l 488 192 z "},"←":{"ha":1307,"x_min":83,"x_max":1251,"o":"m 1251 492 l 1251 283 l 572 283 l 453 290 l 571 164 l 417 26 l 83 388 l 417 750 l 568 610 l 451 485 l 572 492 l 1251 492 z "},"↖":{"ha":1196,"x_min":139,"x_max":1057,"o":"m 1057 132 l 910 -15 l 431 464 l 351 554 l 344 381 l 139 392 l 158 883 l 650 903 l 658 699 l 488 692 l 578 611 l 1057 132 z "},"↔":{"ha":1678,"x_min":83,"x_max":1594,"o":"m 1594 388 l 1261 26 l 1108 164 l 1224 289 l 1172 283 l 506 283 l 454 288 l 571 164 l 417 26 l 83 388 l 417 750 l 568 610 l 454 488 l 506 492 l 1172 492 l 1224 486 l 1110 610 l 1261 750 l 1594 388 z "},"↕":{"ha":1057,"x_min":167,"x_max":890,"o":"m 751 242 l 890 90 l 528 -243 l 167 90 l 304 244 l 429 128 l 424 179 l 424 707 l 429 758 l 304 642 l 167 796 l 528 1129 l 890 796 l 751 644 l 628 758 l 632 707 l 632 179 l 628 128 l 751 242 z "},"◊":{"ha":1390,"x_min":69,"x_max":1321,"o":"m 1321 468 l 696 -8 l 69 468 l 694 944 l 1321 468 m 394 468 l 696 242 l 996 468 l 694 694 l 394 468 z "},"":{"ha":1194,"x_min":42,"x_max":1153,"o":"m 597 917 q 882 859 756 917 q 1081 696 1008 801 q 1153 451 1153 590 q 1081 207 1153 313 q 882 44 1008 101 q 597 -14 756 -14 q 313 44 439 -14 q 114 207 186 101 q 42 451 42 313 q 114 696 42 590 q 313 859 186 801 q 597 917 439 917 m 567 839 q 456 784 503 829 q 381 669 408 739 q 567 656 451 658 l 567 839 m 629 656 q 814 669 742 658 q 738 785 785 740 q 629 839 692 831 l 629 656 m 326 679 q 446 828 371 778 q 233 717 317 797 q 326 679 271 693 m 749 828 q 867 681 822 778 q 958 718 919 694 q 749 828 876 799 m 1067 479 q 992 683 1061 594 q 888 629 946 649 q 915 479 911 557 l 1067 479 m 201 681 q 128 479 133 596 l 279 479 q 307 628 283 556 q 201 681 243 649 m 854 479 q 832 615 850 554 q 629 594 749 597 l 629 479 l 854 479 m 567 594 q 361 614 440 597 q 340 479 344 550 l 567 479 l 567 594 m 128 424 q 197 228 133 311 q 306 283 239 263 q 279 424 283 357 l 128 424 m 340 424 q 361 297 344 360 q 567 318 447 317 l 567 424 l 340 424 m 629 318 q 833 297 749 317 q 854 424 850 357 l 629 424 l 629 318 m 996 225 q 1067 424 1061 313 l 915 424 q 888 282 911 356 q 996 225 950 263 m 567 257 q 379 243 450 254 q 456 122 408 169 q 567 64 503 74 l 567 257 m 629 64 q 738 121 692 74 q 815 242 785 168 q 629 257 733 256 l 629 64 m 228 192 q 450 74 311 107 q 325 232 374 126 q 228 192 269 218 m 744 74 q 965 190 878 103 q 868 231 929 213 q 744 74 822 125 z "},"@":{"ha":1722,"x_min":69,"x_max":1597,"o":"m 1563 819 q 1597 701 1597 765 q 1580 601 1597 651 q 1528 474 1563 550 l 1508 431 q 1463 356 1500 413 q 1386 250 1426 300 q 1322 188 1346 200 q 1290 172 1310 181 q 1260 157 1269 164 q 1251 147 1256 153 q 1235 139 1246 142 q 1228 138 1232 138 q 1210 142 1221 138 q 1192 149 1200 147 q 1093 236 1093 174 q 1094 303 1093 267 q 1097 357 1096 339 q 1099 410 1097 375 q 1101 476 1101 446 q 1106 485 1101 478 q 1122 524 1110 492 q 1135 565 1146 572 q 1056 508 1086 533 l 1056 422 q 976 438 1033 422 q 942 403 976 438 q 869 334 907 368 q 794 274 831 300 q 604 161 738 233 q 451 75 499 106 l 449 74 q 442 111 442 74 q 461 272 442 207 q 497 366 476 319 q 551 478 518 413 q 561 499 556 488 q 574 525 567 510 q 613 611 599 576 l 613 615 q 611 627 613 621 q 610 640 610 633 q 619 650 610 650 q 633 647 624 650 q 649 643 642 644 l 682 640 q 717 637 693 639 q 751 632 740 635 q 874 597 768 628 l 949 574 q 1025 632 988 608 q 1157 672 1089 672 q 1245 644 1211 672 q 1279 565 1279 615 q 1265 497 1279 535 l 1246 476 q 1235 351 1246 429 l 1226 283 l 1381 458 q 1435 594 1419 547 q 1451 688 1451 640 q 1447 725 1451 711 q 1425 764 1442 739 q 1414 783 1417 778 q 1406 790 1411 789 q 1385 797 1401 792 q 1211 825 1360 804 q 1197 826 1210 825 q 1165 826 1185 826 q 1038 819 1108 826 q 783 785 892 808 q 552 710 674 763 q 401 621 431 658 q 290 447 328 518 q 239 307 253 375 q 225 143 225 239 q 242 64 225 96 q 282 13 258 32 q 344 -26 306 -6 q 371 -42 351 -31 q 403 -64 390 -53 q 402 -56 399 -60 q 418 -53 406 -53 q 515 -76 450 -53 q 586 -82 531 -82 q 623 -83 600 -82 q 690 -58 646 -83 q 756 -19 733 -32 q 871 51 854 35 l 936 111 l 1039 44 q 1043 37 1050 38 q 1035 36 1036 36 l 969 -24 q 919 -67 939 -51 q 865 -101 900 -82 l 810 -136 q 690 -201 739 -181 q 572 -221 642 -221 q 444 -206 514 -221 q 333 -178 375 -190 q 267 -144 292 -165 q 125 -5 181 -76 q 69 129 69 67 q 115 403 69 279 q 265 678 161 528 q 374 766 293 717 q 553 857 454 815 q 728 915 651 899 q 1015 958 879 947 q 1165 965 1129 965 q 1250 960 1217 965 q 1371 940 1324 950 q 1467 914 1418 931 q 1515 885 1497 904 q 1544 847 1532 867 q 1563 819 1557 828 m 754 583 l 756 586 l 754 583 m 676 333 q 751 394 707 354 q 840 476 796 435 q 724 510 742 506 l 715 494 q 707 480 711 488 q 696 463 703 472 q 578 253 604 304 l 576 250 l 676 333 z "},"&":{"ha":1694,"x_min":49,"x_max":1667,"o":"m 1667 393 l 1401 393 l 1401 -203 l 1068 -203 l 1068 154 q 862 24 985 75 q 575 -28 739 -28 q 194 43 339 -28 q 49 247 49 114 q 103 370 49 326 q 253 431 157 414 q 499 451 350 449 q 185 515 293 465 q 76 672 76 564 q 245 856 76 794 q 735 917 414 917 q 1076 878 926 917 q 1312 760 1225 840 q 1399 560 1399 679 l 1067 560 q 974 629 1061 606 q 735 653 886 653 q 507 635 576 653 q 438 574 438 618 q 471 524 438 542 q 582 498 504 506 q 799 490 660 490 l 1667 490 l 1667 393 m 1068 393 l 799 393 q 581 388 660 393 q 459 366 501 382 q 417 317 417 350 q 447 263 417 281 q 534 241 476 246 q 700 236 592 236 q 1068 279 931 236 l 1068 393 z "},"¶":{"ha":1532,"x_min":42,"x_max":1435,"o":"m 1435 0 l 1101 0 l 1101 231 l 936 231 l 936 0 l 603 0 l 603 231 l 518 231 q 162 307 282 231 q 42 556 42 383 q 157 809 42 729 q 504 889 272 889 l 1435 889 l 1435 0 m 1101 611 l 500 611 q 419 597 450 611 q 389 542 389 582 q 419 488 389 501 q 500 474 449 474 l 1101 474 l 1101 611 z "},"§":{"ha":1214,"x_min":56,"x_max":1158,"o":"m 872 333 q 1070 264 1003 311 q 1138 146 1138 217 q 1017 0 1138 50 q 667 -50 896 -50 q 384 -18 508 -50 q 190 70 260 14 q 119 197 119 126 q 121 215 119 210 l 404 215 q 650 158 432 158 q 793 172 754 158 q 832 221 832 185 q 813 258 832 246 q 745 276 794 269 q 594 285 696 282 q 280 313 397 292 q 109 374 163 333 q 56 478 56 414 q 353 615 56 615 q 149 688 208 649 q 90 785 90 726 q 218 933 90 879 q 572 986 346 986 q 952 917 815 986 q 1093 725 1089 849 l 788 725 q 728 765 781 753 q 564 778 676 778 q 438 765 479 778 q 396 718 396 751 q 418 674 396 690 q 492 650 440 658 q 642 636 544 642 q 1032 581 906 625 q 1158 458 1158 538 q 1089 367 1158 397 q 872 333 1019 338 m 403 474 q 468 403 403 425 q 675 383 533 382 q 780 408 749 389 q 811 467 811 426 q 756 535 811 517 q 561 553 700 554 q 440 528 478 546 q 403 474 403 510 z "},"©":{"ha":2261,"x_min":83,"x_max":2178,"o":"m 1133 -14 q 573 43 810 -14 q 210 207 336 100 q 83 461 83 314 q 208 708 83 607 q 569 860 333 808 q 1133 911 804 911 q 1695 860 1461 911 q 2053 708 1929 808 q 2178 461 2178 607 q 2052 207 2178 314 q 1691 43 1926 100 q 1133 -14 1456 -14 m 1133 125 q 1575 163 1379 125 q 1884 276 1771 200 q 1997 461 1997 351 q 1761 697 1997 622 q 1133 772 1525 772 q 501 697 739 772 q 264 461 264 622 q 378 276 264 351 q 688 163 492 200 q 1133 125 885 125 m 1728 421 q 1594 273 1728 324 q 1154 222 1461 222 q 800 244 938 222 q 595 316 663 267 q 528 447 528 365 q 679 622 528 568 q 1154 675 831 675 q 1592 624 1460 675 q 1726 476 1725 574 l 1488 476 q 1390 521 1468 506 q 1154 536 1313 536 q 868 516 954 536 q 782 447 782 496 q 867 380 782 399 q 1154 361 951 361 q 1489 421 1446 361 l 1728 421 z "},"®":{"ha":2261,"x_min":83,"x_max":2178,"o":"m 1133 54 q 573 111 810 54 q 210 275 336 168 q 83 529 83 382 q 208 776 83 675 q 569 928 333 876 q 1133 979 804 979 q 1695 928 1461 979 q 2053 776 1929 876 q 2178 529 2178 675 q 2052 275 2178 382 q 1691 111 1926 168 q 1133 54 1456 54 m 1133 193 q 1759 276 1521 193 q 1997 529 1997 358 q 1766 769 1997 699 q 1133 840 1535 840 q 497 769 729 840 q 264 529 264 699 q 503 276 264 358 q 1133 193 743 193 m 729 757 l 1378 757 q 1567 719 1504 757 q 1631 592 1631 681 q 1589 490 1631 521 q 1443 458 1547 458 q 1552 445 1515 454 q 1601 422 1589 436 q 1614 382 1614 407 l 1614 293 l 1428 293 l 1428 358 q 1413 394 1428 382 q 1359 410 1399 406 q 1236 414 1319 414 l 917 414 l 917 293 l 729 293 l 729 757 m 1390 532 q 1429 541 1415 532 q 1443 572 1443 550 q 1429 601 1443 593 q 1390 610 1415 610 l 915 610 l 915 532 l 1390 532 z "},"™":{"ha":2354,"x_min":97,"x_max":2257,"o":"m 396 694 l 97 694 l 97 889 l 986 889 l 986 694 l 674 694 l 674 542 l 396 542 l 396 694 m 2257 889 l 2257 542 l 1979 542 l 1979 685 l 1813 535 l 1535 535 l 1368 682 l 1368 542 l 1090 542 l 1090 889 l 1368 889 l 1672 644 l 1979 889 l 2257 889 m 118 428 l 2257 428 l 2257 233 l 118 233 l 118 428 z "},"°":{"ha":924,"x_min":56,"x_max":868,"o":"m 463 413 q 162 474 268 413 q 56 657 56 535 q 162 841 56 779 q 463 903 268 903 q 762 841 656 903 q 868 657 868 779 q 763 474 868 535 q 463 413 657 413 m 463 524 q 647 558 589 524 q 706 657 706 592 q 463 785 706 785 q 219 657 219 785 q 278 558 219 592 q 463 524 336 524 z "},"|":{"ha":611,"x_min":139,"x_max":472,"o":"m 472 1111 l 472 -222 l 139 -222 l 139 1111 l 472 1111 z "},"¦":{"ha":611,"x_min":139,"x_max":472,"o":"m 472 549 l 139 549 l 139 1111 l 472 1111 l 472 549 m 472 -222 l 139 -222 l 139 340 l 472 340 l 472 -222 z "},"†":{"ha":1569,"x_min":111,"x_max":1458,"o":"m 1458 431 l 951 431 l 951 -278 l 618 -278 l 618 431 l 111 431 l 111 694 l 618 694 l 618 972 l 951 972 l 951 694 l 1458 694 l 1458 431 z "},"‡":{"ha":1431,"x_min":42,"x_max":1389,"o":"m 882 431 l 882 264 l 1389 264 l 1389 0 l 882 0 l 882 -278 l 549 -278 l 549 0 l 42 0 l 42 264 l 549 264 l 549 431 l 42 431 l 42 694 l 549 694 l 549 972 l 882 972 l 882 694 l 1389 694 l 1389 431 l 882 431 z "},"̈":{"ha":0,"x_min":-779,"x_max":-4,"o":"z "},"̇":{"ha":0,"x_min":-381,"x_max":-28,"o":"z "},"̀":{"ha":0,"x_min":-381,"x_max":-28,"o":"m -28 1046 l -28 838 l -381 838 l -381 1046 l -28 1046 z "},"́":{"ha":0,"x_min":-381,"x_max":-28,"o":"z "},"̋":{"ha":0,"x_min":-803,"x_max":-28,"o":"z "},"̂":{"ha":0,"x_min":-381,"x_max":-28,"o":"z "},"̌":{"ha":0,"x_min":-381,"x_max":-28,"o":"z "},"̆":{"ha":0,"x_min":-381,"x_max":-28,"o":"z "},"̊":{"ha":0,"x_min":-381,"x_max":-28,"o":"z "},"̃":{"ha":0,"x_min":-381,"x_max":-28,"o":"z "},"̄":{"ha":0,"x_min":-381,"x_max":-28,"o":"z "},"̒":{"ha":0,"x_min":-381,"x_max":-28,"o":"z "},"̦":{"ha":0,"x_min":-457,"x_max":-104,"o":"z "},"̧":{"ha":0,"x_min":-381,"x_max":-28,"o":"m -28 -278 l -381 -278 l -381 -68 l -28 -68 l -28 -278 z "},"̨":{"ha":0,"x_min":-381,"x_max":-28,"o":"z "},"̵":{"ha":0,"x_min":-708,"x_max":-28,"o":"m -28 582 l -28 492 l -708 492 l -708 582 l -28 582 z "},"̶":{"ha":0,"x_min":-583,"x_max":-28,"o":"m -28 589 l -28 506 l -583 506 l -583 589 l -28 589 z "},"̷":{"ha":0,"x_min":-646,"x_max":-28,"o":"m -28 710 l -597 321 l -646 394 l -79 783 l -28 710 z "},"̸":{"ha":0,"x_min":-704,"x_max":-28,"o":"m -28 1021 l -632 -69 l -704 -25 l -103 1063 l -28 1021 z "},"´":{"ha":422,"x_min":104,"x_max":457,"o":"m 457 838 l 104 838 l 104 1047 l 457 1047 l 457 838 z "},"˘":{"ha":828,"x_min":28,"x_max":381,"o":"z "},"ˇ":{"ha":828,"x_min":104,"x_max":457,"o":"m 104 839 l 104 1047 l 457 1047 l 457 839 l 104 839 z "},"¸":{"ha":422,"x_min":28,"x_max":381,"o":"m 381 -278 l 28 -278 l 28 -68 l 381 -68 l 381 -278 z "},"ˆ":{"ha":422,"x_min":104,"x_max":457,"o":"m 457 838 l 104 838 l 104 1047 l 457 1047 l 457 838 z "},"¨":{"ha":775,"x_min":24,"x_max":799,"o":"m 376 836 l 24 836 l 24 1046 l 376 1046 l 376 836 m 799 836 l 446 836 l 446 1046 l 799 1046 l 799 836 z "},"˙":{"ha":422,"x_min":28,"x_max":381,"o":"z "},"`":{"ha":815,"x_min":275,"x_max":628,"o":"m 628 1046 l 628 838 l 275 838 l 275 1046 l 628 1046 z "},"˝":{"ha":775,"x_min":24,"x_max":799,"o":"z "},"¯":{"ha":422,"x_min":28,"x_max":381,"o":"z "},"˛":{"ha":422,"x_min":28,"x_max":381,"o":"z "},"˚":{"ha":828,"x_min":240,"x_max":588,"o":"m 414 751 q 291 803 342 751 q 240 926 240 854 q 291 1049 240 999 q 414 1100 342 1100 q 537 1049 486 1100 q 588 926 588 999 q 537 803 588 854 q 414 751 486 751 m 414 849 q 467 872 444 849 q 489 926 489 894 q 467 981 489 958 q 414 1003 444 1003 q 361 981 383 1003 q 339 926 339 958 q 361 872 339 894 q 414 849 383 849 z "},"˜":{"ha":828,"x_min":28,"x_max":381,"o":"z "}}}
